<?xml version="1.0" encoding="UTF-8"?>
<!DOCTYPE svg PUBLIC "-//W3C//DTD SVG 1.1//EN" "http://www.w3.org/Graphics/SVG/1.1/DTD/svg11.dtd">
<!-- Creator: CorelDRAW -->
<svg xmlns="http://www.w3.org/2000/svg" xml:space="preserve" width="118.533mm" height="84.6666mm" version="1.1" style="shape-rendering:geometricPrecision; text-rendering:geometricPrecision; image-rendering:optimizeQuality; fill-rule:evenodd; clip-rule:evenodd"
viewBox="0 0 11853.32 8466.66"
 xmlns:xlink="http://www.w3.org/1999/xlink"
 xmlns:xodm="http://www.corel.com/coreldraw/odm/2003">
 <defs>
  <style type="text/css">
   <![CDATA[
    .str0 {stroke:#EE7333;stroke-width:26.46;stroke-miterlimit:22.9256;stroke-opacity:0.149020}
    .fil2 {fill:none}
    .fil1 {fill:#FDEAE0}
    .fil3 {fill:#EE7333;fill-rule:nonzero;fill-opacity:0.101961}
    .fil0 {fill:#EE7333;fill-rule:nonzero;fill-opacity:0.149020}
   ]]>
  </style>
 </defs>
 <g id="Capa_x0020_1">
  <metadata id="CorelCorpID_0Corel-Layer"/>
  <g id="_105553338846816">
   <path class="fil0" d="M605.41 611.4l-16.3 -43.5c-4.61,-2.85 -9.45,-8.02 -14.29,-13.19 -4.1,-4.39 -7.78,-8.86 -7.99,-8.81 -0.4,0.08 -1.14,5.75 -1.89,11.42 -1.33,10.09 -2.67,20.2 -9.67,21.7 -7.51,1.61 -15.06,-7.07 -22.61,-15.75 -3.67,-4.23 -7.35,-8.46 -7.38,-8.45 -2.13,0.45 2.14,4.33 2.14,9.13 0,10.52 0,21.05 -5.83,22.3 -6.88,1.48 -14.8,-6.81 -22.72,-15.11 -4.22,-4.42 -8.34,-8.87 -8.39,-8.85 -0.05,0.01 -0.48,5.43 -1.01,10.87 -0.98,10.2 -1.98,20.41 -8.86,21.88 -5.83,1.25 -13.13,-7.7 -20.43,-16.66 -3.32,-4.08 -2.38,-9.08 -4.51,-8.62 -0.03,0 -0.22,5.06 -0.42,10.12 -0.41,10.4 -0.81,20.79 -8.32,22.39 -7,1.51 -15.14,-6.56 -23.28,-14.63 -4.57,-4.52 -9.13,-9.05 -9.53,-8.96 -0.21,0.04 -0.24,5.31 -0.69,10.67 -0.54,6.33 -1.07,12.65 -3.01,16.91l16.3 43.5 -13.78 2.96 -18.91 -50.46 -3.94 -10.53 6.89 -1.48c0.21,-0.04 0.24,-5.31 0.69,-10.67 0.87,-10.24 1.73,-20.49 8.56,-21.95 7,-1.5 15.14,6.56 23.28,14.63 4.57,4.52 9.13,9.05 9.53,8.97 0.02,-0.01 0.22,-5.07 0.42,-10.13 0.4,-10.39 0.81,-20.78 8.32,-22.39 5.83,-1.25 13.13,7.7 20.44,16.66 3.32,4.08 2.37,9.08 4.51,8.62 0.05,-0.01 0.47,-5.43 1,-10.87 0.99,-10.2 1.98,-20.41 8.86,-21.88 6.88,-1.48 14.79,6.81 22.71,15.11 4.22,4.42 8.35,8.86 8.4,8.85 2.13,-0.46 -2.14,-4.34 -2.14,-9.13 0,-10.53 0,-21.06 5.83,-22.31 7.52,-1.61 15.07,7.07 22.62,15.76 3.67,4.22 7.35,8.45 7.38,8.45 0.39,-0.09 1.14,-5.75 1.89,-11.42 1.33,-10.1 2.66,-20.2 9.66,-21.7 6.84,-1.47 14.67,6.91 22.51,15.28 4.1,4.38 7.79,8.85 8,8.81l6.89 -1.48 3.94 10.52 18.91 50.47 -13.78 2.95 0 0z"/>
   <polygon class="fil0" points="411.21,634.3 607.62,584.25 616.23,610.67 419.81,660.72 "/>
   <path class="fil0" d="M520.29 866.74c-9.98,-37.22 -14.94,-74.69 -14.4,-109.46 0.53,-33.75 6.26,-65.06 17.62,-91.26l2.71 -6.26 6.46 6.01c8.83,8.21 15.92,18.65 21.54,30.94 4.63,10.14 8.27,21.58 11.07,34.09 19.63,13.61 34.39,21.86 45.29,25.85 10.24,3.75 16.46,3.57 19.8,0.56l4.69 -4.22 5.37 8.03c4.72,7.05 8.15,13.51 10.49,19.41 5.73,14.46 5.06,25.3 0.48,33.4 -4.1,7.22 -11.38,11.88 -19.84,14.83 -10.11,3.52 -21.98,4.65 -31.73,4.82l18.18 48.18 3.01 7.96 -5.29 1.8c-12.63,4.29 -26.66,4.4 -41.78,1.3 -14.82,-3.05 -30.69,-9.23 -47.3,-17.63l-4.77 -2.41 -1.6 -5.94 0 0zm-0.21 -102.72c-0.49,30.96 3.64,64.12 11.99,97.18 13.67,6.58 26.73,11.44 38.96,13.96 11.23,2.3 21.75,2.6 31.4,0.4l-18.86 -49.96 -3.85 -10.22 7.7 0.26c9.86,0.32 24.51,-0.21 36.16,-4.27 6.74,-2.35 12.41,-5.83 15.3,-10.93 2.4,-4.22 2.74,-9.88 -0.26,-17.45 -0.83,-2.1 -1.9,-4.36 -3.24,-6.78 -5.68,1.89 -13.42,1.27 -23.74,-2.51 -12.87,-4.72 -30.3,-14.57 -53.54,-31.01l-4.27 -3.01 -1.08 -5.42c-2.54,-12.67 -5.9,-23.98 -10.31,-33.6 -2.57,-5.65 -5.51,-10.69 -8.83,-15.05 -8.67,22.93 -13.08,49.69 -13.53,78.41l0 0z"/>
   <path class="fil0" d="M600.82 611.49c-2.73,-4.48 -7.19,-6.53 -9.95,-4.58 -2.76,1.94 -2.79,7.16 -0.05,11.63 36.49,59.91 66.39,117.87 88.54,173.55 21.18,53.21 35.3,104.39 41.38,153.24l-163.29 32.99c-30.31,-43.96 -55.44,-92.92 -76.03,-146.24 -21.54,-55.8 -38.14,-116.45 -50.52,-181.23 -0.93,-4.84 -4.74,-9.28 -8.51,-9.91 -3.77,-0.62 -6.08,2.79 -5.15,7.63 12.66,66.25 29.7,128.43 51.87,185.85 22.2,57.52 49.52,110.21 82.71,157.36 2.18,3.41 5.53,5.52 8.28,4.96l171.62 -34.67c2.54,-0.42 4.09,-3.04 3.68,-6.76l-6.99 -2.04 6.98 2.03c-5.89,-52.83 -20.88,-108.22 -43.81,-165.83 -22.8,-57.28 -53.44,-116.72 -90.76,-177.98l0 0z"/>
  </g>
  <g id="_105553341573856">
   <path class="fil0" d="M2469.31 1934.35c-19.65,7.08 -37.83,0.64 -53.04,-13.39 -8.08,-7.46 -14.93,-16.94 -20.36,-27.49 -5.03,-9.77 -8.9,-20.58 -11.44,-31.55 -7.57,-32.65 -3.27,-67.85 17.63,-82.18 -11.07,-21.61 -15.33,-43.03 -13.15,-61.15 2.55,-21.2 13.97,-37.86 33.66,-44.95 1.93,-0.7 -0.2,0 1.04,-0.42 19.49,-6.55 43.29,-2.58 66.18,9.21 19.74,10.17 38.79,26.19 53.77,46.33 12.02,-1.35 25.51,1.83 38.6,8.58 11.45,5.9 22.58,14.54 32.1,25.26 2.31,-1.81 4.98,-3.27 7.98,-4.36 0.38,-0.13 0.55,-0.19 0.6,-0.21l-0.01 -0.02c-0.15,0.04 -1.02,0.32 -0.02,-0.02 11.13,-3.75 24.74,-1.47 37.84,5.28 13.07,6.74 25.6,17.95 34.62,32.12 0.31,0.49 0.45,0.7 0.49,0.77l0.01 0c-0.09,-0.18 -0.78,-1.29 0.02,-0.01 8.97,14.41 12.56,29.11 11.1,41.22 -1.45,12.08 -7.97,21.58 -19.2,25.62 -6.73,2.42 -33.53,11 -66.65,21.63 -53.52,17.14 -123.62,39.6 -151.77,49.73l0 0zm-41.38 -29c6.56,6.06 15.31,8.52 25.97,4.68 28.31,-10.19 98.53,-32.7 152.14,-49.88 33.01,-10.57 59.7,-19.12 66.28,-21.49 5.99,-2.16 9.48,-7.29 10.27,-13.82 0.78,-6.51 -1.16,-14.43 -6.01,-22.22 -1.03,-1.66 -0.13,-0.27 0.04,-0.01l0 0 -0.3 -0.48c-4.75,-7.45 -11.35,-13.36 -18.25,-16.91 -6.87,-3.54 -14.05,-4.72 -19.97,-2.73 -1.31,0.44 -0.23,0.04 -0.03,-0.04l0 -0.01 -0.38 0.14c-2.09,0.75 -3.88,1.87 -5.36,3.28 -1.51,1.44 -2.7,3.22 -3.55,5.26l-7.33 17.54 -13.95 -22.94 -0.13 -0.22 -0.03 -0.04c-0.73,-1.21 1.47,2.42 -0.25,-0.35 -1.52,-2.44 0.76,1.12 -0.4,-0.7 -7.05,-11.07 -16.86,-19.85 -27.11,-25.13 -10.21,-5.26 -20.87,-7.02 -29.65,-4.07 -1.93,0.65 0.85,-0.37 -0.57,0.15l-9.63 3.45 -7.7 -12.38c-1.49,-2.4 0.4,0.55 -0.65,-1.11 -11.49,-18.04 -27.49,-32.35 -44.17,-40.95 -16.65,-8.58 -34.02,-11.45 -48.31,-6.65 -1.89,0.63 0.41,-0.21 -0.89,0.25 -14.44,5.21 -22.83,17.49 -24.72,33.16 -1.88,15.63 2.77,34.64 14.38,53.32l7.48 12.02 -9.39 3.38c-20.02,7.2 -24.09,37.91 -17.48,66.44 1.94,8.37 4.8,16.44 8.45,23.53 3.25,6.31 7.03,11.69 11.2,15.53l0 0zm194.95 -147.32c0.02,-0.02 0.02,-0.02 -0.01,-0.02l0.01 0.02zm15.19 24.42c0.03,-0.02 0.04,-0.03 0,-0.01l0 0.01zm57.73 13.71c0.03,0.03 0.03,0.02 0.01,0l-0.01 0zm-19.18 6.45c0.03,0.04 0.04,0.05 0.01,0l-0.01 0z"/>
   <path class="fil0" d="M2490.76 1971.77c7.22,-2.46 15.89,-1.52 24.47,2.05 5.18,2.16 10.32,5.28 15.09,9.21l112.42 -38.37c-0.96,-5.23 -0.85,-10.15 0.29,-14.45 1.87,-7.15 6.52,-12.63 13.74,-15.1 8.37,-2.86 18.61,-1.19 28.39,3.83 9.79,5 19.14,13.35 25.7,23.84 3.05,4.86 5.24,9.85 6.6,14.76 0.37,1.32 0.68,2.64 0.92,3.92 1.17,0.97 2.32,2 3.46,3.06 4.16,3.94 7.9,8.41 10.94,13.27 6.57,10.5 9.13,21.16 7.95,29.91 -1.18,8.75 -6.09,15.59 -14.46,18.45 -8.19,2.8 -18.21,1.22 -27.87,-3.59 -5.62,-2.8 -11.11,-6.73 -16.04,-11.54l-109.25 37.29c1.76,5.89 2.24,11.52 1.5,16.5 -1.29,8.55 -6.16,15.21 -14.35,18.01 -8.37,2.86 -18.61,1.19 -28.4,-3.83 -9.79,-5 -19.13,-13.35 -25.69,-23.84 -3.05,-4.86 -5.24,-9.86 -6.61,-14.76 -0.37,-1.33 -0.67,-2.64 -0.91,-3.92 -1.18,-0.98 -2.33,-2 -3.46,-3.07 -4.17,-3.94 -7.9,-8.41 -10.94,-13.27 -6.57,-10.49 -9.13,-21.15 -7.95,-29.91 1.18,-8.75 6.09,-15.59 14.46,-18.45l0 0zm24.05 25.71c-2.91,-1.21 -5.88,-1.52 -8.38,-0.66 -2.86,0.97 -4.54,3.31 -4.94,6.29 -0.4,2.99 0.47,6.63 2.72,10.21 1.12,1.79 2.37,3.33 3.7,4.58 1.42,1.34 3.02,2.49 4.71,3.41l11.8 6.36 -1.08 10.75c-0.16,1.55 -0.01,3.2 0.46,4.86 0.43,1.56 1.2,3.26 2.32,5.05 2.25,3.59 5.43,6.44 8.77,8.15 3.34,1.7 6.84,2.27 9.7,1.3 2.82,-0.96 4.51,-3.24 4.94,-6.13 0.44,-2.93 -0.35,-6.49 -2.45,-10l-7.4 -12.31 9.69 -3.31 125.39 -42.8 9.68 -3.3 7.91 12.13c2.25,3.46 5.42,6.21 8.73,7.87 3.27,1.62 6.69,2.15 9.52,1.18 2.86,-0.97 4.54,-3.31 4.94,-6.3 0.4,-2.98 -0.48,-6.62 -2.72,-10.21 -1.12,-1.78 -2.38,-3.32 -3.7,-4.57 -1.42,-1.35 -3.02,-2.5 -4.72,-3.41l-11.8 -6.36 1.09 -10.76c0.16,-1.54 0,-3.19 -0.46,-4.86 -0.43,-1.55 -1.2,-3.26 -2.33,-5.05 -2.24,-3.58 -5.43,-6.43 -8.76,-8.14 -3.34,-1.71 -6.84,-2.28 -9.7,-1.3 -2.51,0.86 -4.11,2.72 -4.75,5.14 -0.65,2.48 -0.32,5.54 1.04,8.65l4.68 10.63 -8.11 2.77 -126.2 43.07 -8.11 2.77 -7.93 -9.51c-2.33,-2.8 -5.27,-4.95 -8.25,-6.19l0 0z"/>
   <path class="fil0" d="M2368.87 1946.54l352.59 -120.31c9.65,-3.29 20.42,-1.23 31.21,4.29 11.18,5.72 22.18,15.28 31.59,26.22l117.24 136.29c2.15,2.49 3.96,4.94 5.45,7.33 6.31,10.09 8.43,20.38 7.26,29.33 -1.06,8.18 -4.98,15.28 -10.98,19.85 -2.29,1.75 -4.82,3.13 -7.53,4.05l-405.21 138.26c-2.72,0.93 -5.77,1.46 -9.07,1.61 -8.59,0.41 -18.46,-1.98 -27.58,-6.68 -9.99,-5.14 -19.24,-13.01 -25.55,-23.1 -1.5,-2.39 -2.85,-4.99 -4.03,-7.81l-64.62 -154.25c-5.18,-12.39 -7.91,-24.76 -6.57,-34.76 1.3,-9.64 6.16,-17.03 15.8,-20.32l0 0zm368.26 -95.28l-352.6 120.3c-3.82,1.31 -5.75,4.29 -6.28,8.19 -0.75,5.58 0.98,13 4.22,20.73l64.61 154.25c0.28,0.65 0.66,1.36 1.15,2.15 1.92,3.05 5.09,5.64 8.69,7.49 4.47,2.3 9.34,3.46 13.63,3.26 1.45,-0.07 2.88,-0.33 4.27,-0.8l405.22 -138.27c1.38,-0.47 2.58,-1.1 3.59,-1.87 3,-2.29 4.95,-5.79 5.47,-9.78 0.42,-3.23 -0.18,-6.69 -2.1,-9.75 -0.48,-0.77 -0.97,-1.46 -1.47,-2.04l-117.24 -136.29c-5.87,-6.82 -12.4,-12.61 -18.64,-15.8 -4.37,-2.24 -8.69,-3.08 -12.52,-1.77l0 0z"/>
  </g>
  <g id="_105553338855168">
   <path class="fil0" d="M4506.41 657.26c5.78,-1.13 12.31,0.5 18.49,4.13 3.73,2.19 7.32,5.12 10.56,8.62l89.89 -17.5c-0.18,-4.1 0.42,-7.84 1.74,-11.01 2.18,-5.26 6.31,-8.97 12.09,-10.09 6.69,-1.3 14.34,1.05 21.28,5.9 6.96,4.86 13.22,12.21 17.13,20.92 1.82,4.03 2.96,8.07 3.49,11.96 0.15,1.05 0.24,2.09 0.29,3.1 0.8,0.86 1.57,1.77 2.32,2.7 2.77,3.45 5.15,7.25 6.97,11.28 3.91,8.71 4.74,17.12 2.92,23.68 -1.82,6.56 -6.28,11.27 -12.98,12.58 -6.55,1.27 -14.04,-0.98 -20.91,-5.67 -4,-2.73 -7.78,-6.31 -11.04,-10.5l-87.37 17.01c0.73,4.69 0.51,9.03 -0.59,12.76 -1.88,6.4 -6.3,10.97 -12.85,12.25 -6.69,1.3 -14.34,-1.05 -21.29,-5.91 -6.95,-4.85 -13.21,-12.2 -17.12,-20.91 -1.82,-4.03 -2.97,-8.08 -3.5,-11.97 -0.14,-1.05 -0.23,-2.08 -0.28,-3.09 -0.8,-0.87 -1.57,-1.77 -2.32,-2.71 -2.77,-3.44 -5.15,-7.25 -6.97,-11.28 -3.91,-8.71 -4.75,-17.12 -2.93,-23.68 1.82,-6.56 6.29,-11.27 12.98,-12.57l0 0zm15.68 22.15c-2.1,-1.22 -4.33,-1.77 -6.34,-1.38 -2.28,0.45 -3.81,2.05 -4.43,4.29 -0.62,2.24 -0.33,5.11 1,8.08 0.67,1.49 1.47,2.8 2.35,3.89 0.94,1.17 2.05,2.22 3.24,3.1l8.35 6.09 -1.96 8.1c-0.28,1.17 -0.34,2.45 -0.16,3.76 0.17,1.24 0.58,2.62 1.24,4.11 1.34,2.98 3.48,5.49 5.85,7.14 2.37,1.65 4.98,2.46 7.27,2.01 2.26,-0.43 3.79,-1.99 4.42,-4.16 0.65,-2.19 0.42,-4.99 -0.82,-7.89l-4.36 -10.19 7.74 -1.5 100.28 -19.53 7.75 -1.5 4.76 10.1c1.36,2.88 3.49,5.31 5.84,6.92 2.33,1.59 4.89,2.35 7.15,1.91 2.29,-0.45 3.82,-2.06 4.44,-4.29 0.62,-2.24 0.33,-5.11 -1.01,-8.09 -0.66,-1.48 -1.46,-2.79 -2.34,-3.88 -0.94,-1.18 -2.05,-2.23 -3.25,-3.1l-8.34 -6.1 1.96 -8.1c0.28,-1.17 0.34,-2.44 0.16,-3.76 -0.17,-1.23 -0.58,-2.62 -1.25,-4.11 -1.34,-2.97 -3.47,-5.48 -5.84,-7.14 -2.37,-1.65 -4.99,-2.46 -7.27,-2.01 -2.01,0.39 -3.43,1.65 -4.17,3.43 -0.76,1.83 -0.83,4.19 -0.11,6.72l2.45 8.61 -6.48 1.26 -100.92 19.65 -6.49 1.26 -5.06 -8.1c-1.49,-2.38 -3.5,-4.33 -5.65,-5.6l0 0z"/>
   <g>
    <path class="fil1" d="M4362.44 728.39l-24.97 -175.55 12.83 2.78 24.96 175.48 0.17 1.16 0.6 1.12c4.92,9.18 15.58,16.36 28.13,21.93 12.84,5.69 29.2,10.39 47.89,14.07l0.4 -6.68 -0.4 6.68c44.93,8.82 102.41,9.74 161.96,0.97 59.55,-8.77 110.08,-25.59 143.59,-45.96l-5.3 -5.84 5.3 5.84c13.93,-8.47 25.03,-17.23 32.25,-25.87 7.06,-8.46 11.25,-17.82 8.83,-27.36l-0.29 -1.17 -0.72 -1.08 -107.69 -163.3 9.38 -6.05 107.73 163.36 2.19 4.16c10.08,26.35 -4.74,53.81 -42.4,76.72 -33.65,20.46 -84.65,37.72 -145.01,46.61 -60.37,8.89 -118.58,7.7 -163.72,-1.16 -50.52,-9.92 -84.05,-30.26 -94.58,-56.54l-1.13 -4.32z"/>
    <path id="_1" class="fil2 str0" d="M4362.44 728.39l-24.97 -175.55 12.83 2.78 24.96 175.48 0.17 1.16 0.6 1.12c4.92,9.18 15.58,16.36 28.13,21.93 12.84,5.69 29.2,10.39 47.89,14.07l0.4 -6.68 -0.4 6.68c44.93,8.82 102.41,9.74 161.96,0.97 59.55,-8.77 110.08,-25.59 143.59,-45.96l-5.3 -5.84 5.3 5.84c13.93,-8.47 25.03,-17.23 32.25,-25.87 7.06,-8.46 11.25,-17.82 8.83,-27.36l-0.29 -1.17 -0.72 -1.08 -107.69 -163.3 9.38 -6.05 107.73 163.36 2.19 4.16c10.08,26.35 -4.74,53.81 -42.4,76.72 -33.65,20.46 -84.65,37.72 -145.01,46.61 -60.37,8.89 -118.58,7.7 -163.72,-1.16 -50.52,-9.92 -84.05,-30.26 -94.58,-56.54l-1.13 -4.32z"/>
   </g>
   <g>
    <path class="fil1" d="M4492.18 453.43c48.95,-7.31 96.6,-5.2 133.89,3.87 42.2,10.25 71.25,30.06 81.14,55.65 9.89,25.6 -1.53,51.45 -31.64,72.51 -26.61,18.61 -67.51,33.96 -116.46,41.28 -48.96,7.32 -96.61,5.19 -133.9,-3.87 -42.2,-10.25 -71.24,-30.05 -81.13,-55.65 -9.89,-25.61 1.52,-51.46 31.63,-72.51 26.61,-18.62 67.51,-33.97 116.47,-41.28zm139.94 24.72c-36.96,-8.98 -83.74,-10.76 -131.78,-3.58 -48.04,7.18 -88.42,21.97 -114.79,40.42 -11.22,7.85 -20.03,16.09 -25.4,24.32 -5.3,8.12 -7.8,17.14 -4.32,26.15 3.48,9 12.29,16.33 22.95,22.07 10.79,5.82 24.65,10.66 40.39,14.49 36.96,8.99 83.74,10.76 131.77,3.58 48.04,-7.18 88.42,-21.98 114.79,-40.42 11.23,-7.86 20.03,-16.09 25.41,-24.32 5.29,-8.13 7.8,-17.15 4.32,-26.15 -3.48,-9.01 -12.3,-16.34 -22.95,-22.07 -10.79,-5.82 -24.65,-10.67 -40.39,-14.49z"/>
    <path id="_1_0" class="fil2 str0" d="M4492.18 453.43c48.95,-7.31 96.6,-5.2 133.89,3.87 42.2,10.25 71.25,30.06 81.14,55.65 9.89,25.6 -1.53,51.45 -31.64,72.51 -26.61,18.61 -67.51,33.96 -116.46,41.28 -48.96,7.32 -96.61,5.19 -133.9,-3.87 -42.2,-10.25 -71.24,-30.05 -81.13,-55.65 -9.89,-25.61 1.52,-51.46 31.63,-72.51 26.61,-18.62 67.51,-33.97 116.47,-41.28zm139.94 24.72c-36.96,-8.98 -83.74,-10.76 -131.78,-3.58 -48.04,7.18 -88.42,21.97 -114.79,40.42 -11.22,7.85 -20.03,16.09 -25.4,24.32 -5.3,8.12 -7.8,17.14 -4.32,26.15 3.48,9 12.29,16.33 22.95,22.07 10.79,5.82 24.65,10.66 40.39,14.49 36.96,8.99 83.74,10.76 131.77,3.58 48.04,-7.18 88.42,-21.98 114.79,-40.42 11.23,-7.86 20.03,-16.09 25.41,-24.32 5.29,-8.13 7.8,-17.15 4.32,-26.15 -3.48,-9.01 -12.3,-16.34 -22.95,-22.07 -10.79,-5.82 -24.65,-10.67 -40.39,-14.49z"/>
   </g>
  </g>
  <g id="_105553338854272">
   <path class="fil0" d="M5900.71 2022.6c12.49,-2.43 26.58,1.09 39.94,8.94 8.06,4.73 15.83,11.05 22.82,18.61l194.24 -37.81c-0.38,-8.85 0.91,-16.94 3.76,-23.78 4.71,-11.37 13.64,-19.37 26.12,-21.8 14.46,-2.82 30.98,2.26 45.99,12.75 15.02,10.49 28.55,26.38 37,45.19 3.93,8.71 6.41,17.45 7.55,25.86 0.31,2.27 0.51,4.51 0.62,6.68 1.72,1.87 3.38,3.83 5.02,5.84 5.98,7.45 11.12,15.67 15.04,24.39 8.46,18.82 10.26,36.99 6.33,51.17 -3.93,14.17 -13.59,24.34 -28.04,27.16 -14.16,2.76 -30.35,-2.12 -45.19,-12.25 -8.65,-5.9 -16.81,-13.63 -23.85,-22.68l-188.8 36.75c1.57,10.13 1.1,19.52 -1.26,27.58 -4.07,13.81 -13.62,23.7 -27.78,26.46 -14.46,2.81 -30.98,-2.27 -46,-12.76 -15.02,-10.48 -28.54,-26.38 -37,-45.2 -3.92,-8.71 -6.4,-17.45 -7.54,-25.84 -0.31,-2.28 -0.51,-4.51 -0.62,-6.69 -1.72,-1.88 -3.4,-3.83 -5.02,-5.85 -5.98,-7.45 -11.12,-15.67 -15.04,-24.38 -8.46,-18.81 -10.27,-36.99 -6.34,-51.17 3.94,-14.18 13.59,-24.35 28.05,-27.17l0 0zm33.87 47.88c-4.53,-2.65 -9.35,-3.84 -13.69,-2.99 -4.93,0.96 -8.23,4.44 -9.58,9.26 -1.33,4.84 -0.72,11.06 2.17,17.47 1.44,3.22 3.17,6.05 5.07,8.41 2.04,2.53 4.43,4.79 7.01,6.69l18.04 13.17 -4.23 17.5c-0.62,2.52 -0.74,5.28 -0.35,8.13 0.36,2.68 1.24,5.65 2.68,8.87 2.9,6.43 7.52,11.85 12.63,15.43 5.13,3.57 10.77,5.31 15.71,4.35 4.88,-0.95 8.18,-4.31 9.55,-8.99 1.4,-4.74 0.9,-10.8 -1.77,-17.06l-9.42 -22.01 16.73 -3.25 216.68 -42.19 16.73 -3.26 10.3 21.83c2.93,6.22 7.53,11.48 12.62,14.97 5.03,3.42 10.56,5.07 15.45,4.11 4.94,-0.96 8.24,-4.43 9.59,-9.27 1.33,-4.84 0.71,-11.04 -2.17,-17.47 -1.45,-3.21 -3.18,-6.03 -5.07,-8.4 -2.04,-2.54 -4.43,-4.8 -7.01,-6.69l-18.04 -13.17 4.23 -17.51c0.61,-2.52 0.74,-5.28 0.35,-8.13 -0.36,-2.66 -1.24,-5.65 -2.69,-8.87 -2.89,-6.41 -7.51,-11.84 -12.62,-15.43 -5.13,-3.57 -10.78,-5.31 -15.71,-4.34 -4.34,0.84 -7.41,3.56 -9.01,7.4 -1.64,3.96 -1.8,9.07 -0.25,14.52l5.31 18.61 -14.02 2.73 -218.06 42.45 -14.02 2.73 -10.93 -17.51c-3.21,-5.14 -7.57,-9.36 -12.21,-12.09l0 0z"/>
  </g>
  <path class="fil3" d="M8374.93 862.89c0,-47.15 -38.23,-85.38 -85.38,-85.38 -47.15,0 -85.37,38.23 -85.37,85.38 0,47.15 38.22,85.37 85.37,85.37 47.15,0 85.38,-38.22 85.38,-85.37z"/>
  <g id="_105553338852448">
   <path class="fil0" d="M9166.42 2527.03c-19.65,7.08 -37.83,0.64 -53.04,-13.39 -8.08,-7.46 -14.93,-16.94 -20.36,-27.49 -5.03,-9.77 -8.9,-20.58 -11.44,-31.55 -7.57,-32.65 -3.27,-67.85 17.63,-82.18 -11.07,-21.61 -15.33,-43.03 -13.15,-61.15 2.55,-21.2 13.97,-37.86 33.66,-44.95 1.93,-0.7 -0.2,0 1.04,-0.42 19.49,-6.55 43.29,-2.58 66.18,9.21 19.74,10.17 38.79,26.19 53.77,46.33 12.02,-1.35 25.51,1.83 38.6,8.58 11.45,5.9 22.58,14.54 32.1,25.26 2.31,-1.81 4.98,-3.27 7.98,-4.36 0.38,-0.13 0.55,-0.19 0.6,-0.21l-0.01 -0.02c-0.15,0.04 -1.02,0.32 -0.02,-0.02 11.13,-3.75 24.74,-1.47 37.84,5.28 13.07,6.74 25.6,17.95 34.62,32.12 0.31,0.49 0.45,0.7 0.49,0.77l0.01 0c-0.09,-0.18 -0.78,-1.29 0.02,-0.01 8.97,14.41 12.56,29.11 11.1,41.22 -1.45,12.08 -7.97,21.58 -19.2,25.62 -6.73,2.42 -33.53,11 -66.65,21.63 -53.52,17.14 -123.62,39.6 -151.77,49.73l0 0zm-41.38 -29c6.56,6.06 15.31,8.52 25.97,4.68 28.31,-10.19 98.53,-32.7 152.14,-49.88 33.01,-10.57 59.7,-19.12 66.28,-21.49 5.99,-2.16 9.48,-7.29 10.27,-13.82 0.78,-6.51 -1.16,-14.43 -6.01,-22.22 -1.03,-1.66 -0.13,-0.27 0.04,-0.01l0 0 -0.3 -0.48c-4.75,-7.45 -11.35,-13.36 -18.25,-16.91 -6.87,-3.54 -14.05,-4.72 -19.97,-2.73 -1.31,0.44 -0.23,0.04 -0.03,-0.04l0 -0.01 -0.38 0.14c-2.09,0.75 -3.88,1.87 -5.36,3.28 -1.51,1.44 -2.7,3.22 -3.55,5.26l-7.33 17.54 -13.95 -22.94 -0.13 -0.22 -0.03 -0.04c-0.73,-1.21 1.47,2.42 -0.25,-0.35 -1.52,-2.44 0.76,1.12 -0.4,-0.7 -7.05,-11.07 -16.86,-19.85 -27.11,-25.13 -10.21,-5.26 -20.87,-7.02 -29.65,-4.07 -1.93,0.65 0.85,-0.37 -0.57,0.15l-9.63 3.45 -7.7 -12.38c-1.49,-2.4 0.4,0.55 -0.65,-1.11 -11.49,-18.04 -27.49,-32.35 -44.17,-40.95 -16.65,-8.58 -34.02,-11.45 -48.31,-6.65 -1.89,0.63 0.41,-0.21 -0.89,0.25 -14.44,5.21 -22.83,17.49 -24.72,33.16 -1.88,15.63 2.77,34.64 14.38,53.32l7.48 12.02 -9.39 3.38c-20.02,7.2 -24.09,37.91 -17.48,66.44 1.94,8.37 4.8,16.44 8.45,23.53 3.25,6.31 7.03,11.69 11.2,15.53l0 0zm194.95 -147.32c0.02,-0.02 0.02,-0.02 -0.01,-0.02l0.01 0.02zm15.19 24.42c0.03,-0.02 0.04,-0.03 0,-0.01l0 0.01zm57.73 13.71c0.03,0.03 0.03,0.02 0.01,0l-0.01 0zm-19.18 6.45c0.03,0.04 0.04,0.05 0.01,0l-0.01 0z"/>
   <path class="fil0" d="M9187.87 2564.45c7.22,-2.46 15.89,-1.52 24.47,2.05 5.18,2.16 10.32,5.28 15.09,9.21l112.42 -38.37c-0.96,-5.23 -0.85,-10.15 0.29,-14.45 1.87,-7.15 6.52,-12.63 13.74,-15.1 8.37,-2.86 18.61,-1.19 28.39,3.83 9.79,5 19.14,13.35 25.7,23.84 3.05,4.86 5.24,9.85 6.6,14.76 0.37,1.32 0.68,2.64 0.92,3.92 1.17,0.97 2.32,2 3.46,3.06 4.16,3.94 7.9,8.41 10.94,13.27 6.57,10.5 9.13,21.16 7.95,29.91 -1.18,8.75 -6.09,15.59 -14.46,18.45 -8.19,2.8 -18.21,1.22 -27.87,-3.59 -5.62,-2.8 -11.11,-6.73 -16.04,-11.54l-109.25 37.29c1.76,5.89 2.24,11.52 1.5,16.5 -1.29,8.55 -6.16,15.21 -14.35,18.01 -8.37,2.86 -18.61,1.19 -28.4,-3.83 -9.79,-5 -19.13,-13.35 -25.69,-23.84 -3.05,-4.86 -5.24,-9.86 -6.61,-14.76 -0.37,-1.33 -0.67,-2.64 -0.91,-3.92 -1.18,-0.98 -2.33,-2 -3.46,-3.07 -4.17,-3.94 -7.9,-8.41 -10.94,-13.27 -6.57,-10.49 -9.13,-21.15 -7.95,-29.91 1.18,-8.75 6.09,-15.59 14.46,-18.45l0 0zm24.05 25.71c-2.91,-1.21 -5.88,-1.52 -8.38,-0.66 -2.86,0.97 -4.54,3.31 -4.94,6.29 -0.4,2.99 0.47,6.63 2.72,10.21 1.12,1.79 2.37,3.33 3.7,4.58 1.42,1.34 3.02,2.49 4.71,3.41l11.8 6.36 -1.08 10.75c-0.16,1.55 -0.01,3.2 0.46,4.86 0.43,1.56 1.2,3.26 2.32,5.05 2.25,3.59 5.43,6.44 8.77,8.15 3.34,1.7 6.84,2.27 9.7,1.3 2.82,-0.96 4.51,-3.24 4.94,-6.13 0.44,-2.93 -0.35,-6.49 -2.45,-10l-7.4 -12.31 9.69 -3.31 125.39 -42.8 9.68 -3.3 7.91 12.13c2.25,3.46 5.42,6.21 8.73,7.87 3.27,1.62 6.69,2.15 9.52,1.18 2.86,-0.97 4.54,-3.31 4.94,-6.3 0.4,-2.98 -0.48,-6.62 -2.72,-10.21 -1.12,-1.78 -2.38,-3.32 -3.7,-4.57 -1.42,-1.35 -3.02,-2.5 -4.72,-3.41l-11.8 -6.36 1.09 -10.76c0.16,-1.54 0,-3.19 -0.46,-4.86 -0.43,-1.55 -1.2,-3.26 -2.33,-5.05 -2.24,-3.58 -5.43,-6.43 -8.76,-8.14 -3.34,-1.71 -6.84,-2.28 -9.7,-1.3 -2.51,0.86 -4.11,2.72 -4.75,5.14 -0.65,2.48 -0.32,5.54 1.04,8.65l4.68 10.63 -8.11 2.77 -126.2 43.07 -8.11 2.77 -7.93 -9.51c-2.33,-2.8 -5.27,-4.95 -8.25,-6.19l0 0z"/>
   <path class="fil0" d="M9065.98 2539.22l352.59 -120.31c9.65,-3.29 20.42,-1.23 31.21,4.29 11.18,5.72 22.18,15.28 31.59,26.22l117.24 136.29c2.15,2.49 3.96,4.94 5.45,7.33 6.31,10.09 8.43,20.38 7.26,29.33 -1.06,8.18 -4.98,15.28 -10.98,19.85 -2.29,1.75 -4.82,3.13 -7.53,4.05l-405.21 138.26c-2.72,0.93 -5.77,1.46 -9.07,1.61 -8.59,0.41 -18.46,-1.98 -27.58,-6.68 -9.99,-5.14 -19.24,-13.01 -25.55,-23.1 -1.5,-2.39 -2.85,-4.99 -4.03,-7.81l-64.62 -154.25c-5.18,-12.39 -7.91,-24.76 -6.57,-34.76 1.3,-9.64 6.16,-17.03 15.8,-20.32l0 0zm368.26 -95.28l-352.6 120.3c-3.82,1.31 -5.75,4.29 -6.28,8.19 -0.75,5.58 0.98,13 4.22,20.73l64.61 154.25c0.28,0.65 0.66,1.36 1.15,2.15 1.92,3.05 5.09,5.64 8.69,7.49 4.47,2.3 9.34,3.46 13.63,3.26 1.45,-0.07 2.88,-0.33 4.27,-0.8l405.22 -138.27c1.38,-0.47 2.58,-1.1 3.59,-1.87 3,-2.29 4.95,-5.79 5.47,-9.78 0.42,-3.23 -0.18,-6.69 -2.1,-9.75 -0.48,-0.77 -0.97,-1.46 -1.47,-2.04l-117.24 -136.29c-5.87,-6.82 -12.4,-12.61 -18.64,-15.8 -4.37,-2.24 -8.69,-3.08 -12.52,-1.77l0 0z"/>
  </g>
  <g id="_105553338957408">
   <path class="fil0" d="M10858.54 806.13l-16.3 -43.5c-4.61,-2.85 -9.45,-8.02 -14.29,-13.19 -4.1,-4.39 -7.78,-8.86 -7.99,-8.81 -0.4,0.08 -1.14,5.75 -1.89,11.42 -1.33,10.09 -2.67,20.2 -9.67,21.7 -7.51,1.61 -15.06,-7.07 -22.61,-15.75 -3.67,-4.23 -7.35,-8.46 -7.38,-8.45 -2.13,0.45 2.14,4.33 2.14,9.13 0,10.52 0,21.05 -5.83,22.3 -6.88,1.48 -14.8,-6.81 -22.72,-15.11 -4.22,-4.42 -8.34,-8.87 -8.39,-8.85 -0.05,0.01 -0.48,5.43 -1.01,10.87 -0.98,10.2 -1.98,20.41 -8.86,21.88 -5.83,1.25 -13.13,-7.7 -20.43,-16.66 -3.32,-4.08 -2.38,-9.08 -4.51,-8.62 -0.03,0 -0.22,5.06 -0.42,10.12 -0.41,10.4 -0.81,20.79 -8.32,22.39 -7,1.51 -15.14,-6.56 -23.28,-14.63 -4.57,-4.52 -9.13,-9.05 -9.53,-8.96 -0.21,0.04 -0.24,5.31 -0.69,10.67 -0.54,6.33 -1.07,12.65 -3.01,16.91l16.3 43.5 -13.78 2.96 -18.91 -50.46 -3.94 -10.53 6.89 -1.48c0.21,-0.04 0.24,-5.31 0.69,-10.67 0.87,-10.24 1.73,-20.49 8.56,-21.95 7,-1.5 15.14,6.56 23.28,14.63 4.57,4.52 9.13,9.05 9.53,8.97 0.02,-0.01 0.22,-5.07 0.42,-10.13 0.4,-10.39 0.81,-20.78 8.32,-22.39 5.83,-1.25 13.13,7.7 20.44,16.66 3.32,4.08 2.37,9.08 4.51,8.62 0.05,-0.01 0.47,-5.43 1,-10.87 0.99,-10.2 1.98,-20.41 8.86,-21.88 6.88,-1.48 14.79,6.81 22.71,15.11 4.22,4.42 8.35,8.86 8.4,8.85 2.13,-0.46 -2.14,-4.34 -2.14,-9.13 0,-10.53 0,-21.06 5.83,-22.31 7.52,-1.61 15.07,7.07 22.62,15.76 3.67,4.22 7.35,8.45 7.38,8.45 0.39,-0.09 1.14,-5.75 1.89,-11.42 1.33,-10.1 2.66,-20.2 9.66,-21.7 6.84,-1.47 14.67,6.91 22.51,15.28 4.1,4.38 7.79,8.85 8,8.81l6.89 -1.48 3.94 10.52 18.91 50.47 -13.78 2.95 0 0z"/>
   <polygon class="fil0" points="10664.34,829.03 10860.75,778.98 10869.36,805.4 10672.94,855.45 "/>
   <path class="fil0" d="M10773.42 1061.47c-9.98,-37.22 -14.94,-74.69 -14.4,-109.46 0.53,-33.75 6.26,-65.06 17.62,-91.26l2.71 -6.26 6.46 6.01c8.83,8.21 15.92,18.65 21.54,30.94 4.63,10.14 8.27,21.58 11.07,34.09 19.63,13.61 34.39,21.86 45.29,25.85 10.24,3.75 16.46,3.57 19.8,0.56l4.69 -4.22 5.37 8.03c4.72,7.05 8.15,13.51 10.49,19.41 5.73,14.46 5.06,25.3 0.48,33.4 -4.1,7.22 -11.38,11.88 -19.84,14.83 -10.11,3.52 -21.98,4.65 -31.73,4.82l18.18 48.18 3.01 7.96 -5.29 1.8c-12.63,4.29 -26.66,4.4 -41.78,1.3 -14.82,-3.05 -30.69,-9.23 -47.3,-17.63l-4.77 -2.41 -1.6 -5.94 0 0zm-0.21 -102.72c-0.49,30.96 3.64,64.12 11.99,97.18 13.67,6.58 26.73,11.44 38.96,13.96 11.23,2.3 21.75,2.6 31.4,0.4l-18.86 -49.96 -3.85 -10.22 7.7 0.26c9.86,0.32 24.51,-0.21 36.16,-4.27 6.74,-2.35 12.41,-5.83 15.3,-10.93 2.4,-4.22 2.74,-9.88 -0.26,-17.45 -0.83,-2.1 -1.9,-4.36 -3.24,-6.78 -5.68,1.89 -13.42,1.27 -23.74,-2.51 -12.87,-4.72 -30.3,-14.57 -53.54,-31.01l-4.27 -3.01 -1.08 -5.42c-2.54,-12.67 -5.9,-23.98 -10.31,-33.6 -2.57,-5.65 -5.51,-10.69 -8.83,-15.05 -8.67,22.93 -13.08,49.69 -13.53,78.41l0 0z"/>
   <path class="fil0" d="M10853.95 806.22c-2.73,-4.48 -7.19,-6.53 -9.95,-4.58 -2.76,1.94 -2.79,7.16 -0.05,11.63 36.49,59.91 66.39,117.87 88.54,173.55 21.18,53.21 35.3,104.39 41.38,153.24l-163.29 32.99c-30.31,-43.96 -55.44,-92.92 -76.03,-146.24 -21.54,-55.8 -38.14,-116.45 -50.52,-181.23 -0.93,-4.84 -4.74,-9.28 -8.51,-9.91 -3.77,-0.62 -6.08,2.79 -5.15,7.63 12.66,66.25 29.7,128.43 51.87,185.85 22.2,57.52 49.52,110.21 82.71,157.36 2.18,3.41 5.53,5.52 8.28,4.96l171.62 -34.67c2.54,-0.42 4.09,-3.04 3.68,-6.76l-6.99 -2.04 6.98 2.03c-5.89,-52.83 -20.88,-108.22 -43.81,-165.83 -22.8,-57.28 -53.44,-116.72 -90.76,-177.98l0 0z"/>
  </g>
  <g id="_105553338956864">
   <path class="fil0" d="M10438.84 3834.47c12.49,-2.43 26.58,1.09 39.94,8.94 8.06,4.73 15.83,11.05 22.82,18.61l194.24 -37.81c-0.38,-8.85 0.91,-16.94 3.76,-23.78 4.71,-11.37 13.64,-19.37 26.12,-21.8 14.46,-2.82 30.98,2.26 45.99,12.75 15.02,10.49 28.55,26.38 37,45.19 3.93,8.71 6.41,17.45 7.55,25.86 0.31,2.27 0.51,4.51 0.62,6.68 1.72,1.87 3.38,3.83 5.02,5.84 5.98,7.45 11.12,15.67 15.04,24.39 8.46,18.82 10.26,36.99 6.33,51.17 -3.93,14.17 -13.59,24.34 -28.04,27.16 -14.16,2.76 -30.35,-2.12 -45.19,-12.25 -8.65,-5.9 -16.81,-13.63 -23.85,-22.68l-188.8 36.75c1.57,10.13 1.1,19.52 -1.26,27.58 -4.07,13.81 -13.62,23.7 -27.78,26.46 -14.46,2.81 -30.98,-2.27 -46,-12.76 -15.02,-10.48 -28.54,-26.38 -37,-45.2 -3.92,-8.71 -6.4,-17.45 -7.54,-25.84 -0.31,-2.28 -0.51,-4.51 -0.62,-6.69 -1.72,-1.88 -3.4,-3.83 -5.02,-5.85 -5.98,-7.45 -11.12,-15.67 -15.04,-24.38 -8.46,-18.81 -10.27,-36.99 -6.34,-51.17 3.94,-14.18 13.59,-24.35 28.05,-27.17l0 0zm33.87 47.88c-4.53,-2.65 -9.35,-3.84 -13.69,-2.99 -4.93,0.96 -8.23,4.44 -9.58,9.26 -1.33,4.84 -0.72,11.06 2.17,17.47 1.44,3.22 3.17,6.05 5.07,8.41 2.04,2.53 4.43,4.79 7.01,6.69l18.04 13.17 -4.23 17.5c-0.62,2.52 -0.74,5.28 -0.35,8.13 0.36,2.68 1.24,5.65 2.68,8.87 2.9,6.43 7.52,11.85 12.63,15.43 5.13,3.57 10.77,5.31 15.71,4.35 4.88,-0.95 8.18,-4.31 9.55,-8.99 1.4,-4.74 0.9,-10.8 -1.77,-17.06l-9.42 -22.01 16.73 -3.25 216.68 -42.19 16.73 -3.26 10.3 21.83c2.93,6.22 7.53,11.48 12.62,14.97 5.03,3.42 10.56,5.07 15.45,4.11 4.94,-0.96 8.24,-4.43 9.59,-9.27 1.33,-4.84 0.71,-11.04 -2.17,-17.47 -1.45,-3.21 -3.18,-6.03 -5.07,-8.4 -2.04,-2.54 -4.43,-4.8 -7.01,-6.69l-18.04 -13.17 4.23 -17.51c0.61,-2.52 0.74,-5.28 0.35,-8.13 -0.36,-2.66 -1.24,-5.65 -2.69,-8.87 -2.89,-6.41 -7.51,-11.84 -12.62,-15.43 -5.13,-3.57 -10.78,-5.31 -15.71,-4.34 -4.34,0.84 -7.41,3.56 -9.01,7.4 -1.64,3.96 -1.8,9.07 -0.25,14.52l5.31 18.61 -14.02 2.73 -218.06 42.45 -14.02 2.73 -10.93 -17.51c-3.21,-5.14 -7.57,-9.36 -12.21,-12.09l0 0z"/>
  </g>
  <g id="_105553338956096">
   <path class="fil0" d="M2574.18 3983.95c12.49,-2.43 26.58,1.09 39.94,8.94 8.06,4.73 15.83,11.05 22.82,18.61l194.24 -37.81c-0.38,-8.85 0.91,-16.94 3.76,-23.78 4.71,-11.37 13.64,-19.37 26.12,-21.8 14.46,-2.82 30.98,2.26 45.99,12.75 15.02,10.49 28.55,26.38 37,45.19 3.93,8.71 6.41,17.45 7.55,25.86 0.31,2.27 0.51,4.51 0.62,6.68 1.72,1.87 3.38,3.83 5.02,5.84 5.98,7.45 11.12,15.67 15.04,24.39 8.46,18.82 10.26,36.99 6.33,51.17 -3.93,14.17 -13.59,24.34 -28.04,27.16 -14.16,2.76 -30.35,-2.12 -45.19,-12.25 -8.65,-5.9 -16.81,-13.63 -23.85,-22.68l-188.8 36.75c1.57,10.13 1.1,19.52 -1.26,27.58 -4.07,13.81 -13.62,23.7 -27.78,26.46 -14.46,2.81 -30.98,-2.27 -46,-12.76 -15.02,-10.48 -28.54,-26.38 -37,-45.2 -3.92,-8.71 -6.4,-17.45 -7.54,-25.84 -0.31,-2.28 -0.51,-4.51 -0.62,-6.69 -1.72,-1.88 -3.4,-3.83 -5.02,-5.85 -5.98,-7.45 -11.12,-15.67 -15.04,-24.38 -8.46,-18.81 -10.27,-36.99 -6.34,-51.17 3.94,-14.18 13.59,-24.35 28.05,-27.17l0 0zm33.87 47.88c-4.53,-2.65 -9.35,-3.84 -13.69,-2.99 -4.93,0.96 -8.23,4.44 -9.58,9.26 -1.33,4.84 -0.72,11.06 2.17,17.47 1.44,3.22 3.17,6.05 5.07,8.41 2.04,2.53 4.43,4.79 7.01,6.69l18.04 13.17 -4.23 17.5c-0.62,2.52 -0.74,5.28 -0.35,8.13 0.36,2.68 1.24,5.65 2.68,8.87 2.9,6.43 7.52,11.85 12.63,15.43 5.13,3.57 10.77,5.31 15.71,4.35 4.88,-0.95 8.18,-4.31 9.55,-8.99 1.4,-4.74 0.9,-10.8 -1.77,-17.06l-9.42 -22.01 16.73 -3.25 216.68 -42.19 16.73 -3.26 10.3 21.83c2.93,6.22 7.53,11.48 12.62,14.97 5.03,3.42 10.56,5.07 15.45,4.11 4.94,-0.96 8.24,-4.43 9.59,-9.27 1.33,-4.84 0.71,-11.04 -2.17,-17.47 -1.45,-3.21 -3.18,-6.03 -5.07,-8.4 -2.04,-2.54 -4.43,-4.8 -7.01,-6.69l-18.04 -13.17 4.23 -17.51c0.61,-2.52 0.74,-5.28 0.35,-8.13 -0.36,-2.66 -1.24,-5.65 -2.69,-8.87 -2.89,-6.41 -7.51,-11.84 -12.62,-15.43 -5.13,-3.57 -10.78,-5.31 -15.71,-4.34 -4.34,0.84 -7.41,3.56 -9.01,7.4 -1.64,3.96 -1.8,9.07 -0.25,14.52l5.31 18.61 -14.02 2.73 -218.06 42.45 -14.02 2.73 -10.93 -17.51c-3.21,-5.14 -7.57,-9.36 -12.21,-12.09l0 0z"/>
  </g>
  <g id="_105553339198112">
   <path class="fil0" d="M7376.63 4026.97c5.78,-1.13 12.31,0.5 18.49,4.13 3.73,2.19 7.32,5.12 10.56,8.62l89.89 -17.5c-0.18,-4.1 0.42,-7.84 1.74,-11.01 2.18,-5.26 6.31,-8.97 12.09,-10.09 6.69,-1.3 14.34,1.05 21.28,5.9 6.96,4.86 13.22,12.21 17.13,20.92 1.82,4.03 2.96,8.07 3.49,11.96 0.15,1.05 0.24,2.09 0.29,3.1 0.8,0.86 1.57,1.77 2.32,2.7 2.77,3.45 5.15,7.25 6.97,11.28 3.91,8.71 4.74,17.12 2.92,23.68 -1.82,6.56 -6.28,11.27 -12.98,12.58 -6.55,1.27 -14.04,-0.98 -20.91,-5.67 -4,-2.73 -7.78,-6.31 -11.04,-10.5l-87.37 17.01c0.73,4.69 0.51,9.03 -0.59,12.76 -1.88,6.4 -6.3,10.97 -12.85,12.25 -6.69,1.3 -14.34,-1.05 -21.29,-5.91 -6.95,-4.85 -13.21,-12.2 -17.12,-20.91 -1.82,-4.03 -2.97,-8.08 -3.5,-11.97 -0.14,-1.05 -0.23,-2.08 -0.28,-3.09 -0.8,-0.87 -1.57,-1.77 -2.32,-2.71 -2.77,-3.44 -5.15,-7.25 -6.97,-11.28 -3.91,-8.71 -4.75,-17.12 -2.93,-23.68 1.82,-6.56 6.29,-11.27 12.98,-12.57l0 0zm15.68 22.15c-2.1,-1.22 -4.33,-1.77 -6.34,-1.38 -2.28,0.45 -3.81,2.05 -4.43,4.29 -0.62,2.24 -0.33,5.11 1,8.08 0.67,1.49 1.47,2.8 2.35,3.89 0.94,1.17 2.05,2.22 3.24,3.1l8.35 6.09 -1.96 8.1c-0.28,1.17 -0.34,2.45 -0.16,3.76 0.17,1.24 0.58,2.62 1.24,4.11 1.34,2.98 3.48,5.49 5.85,7.14 2.37,1.65 4.98,2.46 7.27,2.01 2.26,-0.43 3.79,-1.99 4.42,-4.16 0.65,-2.19 0.42,-4.99 -0.82,-7.89l-4.36 -10.19 7.74 -1.5 100.28 -19.53 7.75 -1.5 4.76 10.1c1.36,2.88 3.49,5.31 5.84,6.92 2.33,1.59 4.89,2.35 7.15,1.91 2.29,-0.45 3.82,-2.06 4.44,-4.29 0.62,-2.24 0.33,-5.11 -1.01,-8.09 -0.66,-1.48 -1.46,-2.79 -2.34,-3.88 -0.94,-1.18 -2.05,-2.23 -3.25,-3.1l-8.34 -6.1 1.96 -8.1c0.28,-1.17 0.34,-2.44 0.16,-3.76 -0.17,-1.23 -0.58,-2.62 -1.25,-4.11 -1.34,-2.97 -3.47,-5.48 -5.84,-7.14 -2.37,-1.65 -4.99,-2.46 -7.27,-2.01 -2.01,0.39 -3.43,1.65 -4.17,3.43 -0.76,1.83 -0.83,4.19 -0.11,6.72l2.45 8.61 -6.48 1.26 -100.92 19.65 -6.49 1.26 -5.06 -8.1c-1.49,-2.38 -3.5,-4.33 -5.65,-5.6l0 0z"/>
   <g>
    <path class="fil1" d="M7232.66 4098.1l-24.97 -175.55 12.83 2.78 24.96 175.48 0.17 1.16 0.6 1.12c4.92,9.18 15.58,16.36 28.13,21.93 12.84,5.69 29.2,10.39 47.89,14.07l0.4 -6.68 -0.4 6.68c44.93,8.82 102.41,9.74 161.96,0.97 59.55,-8.77 110.08,-25.59 143.59,-45.96l-5.3 -5.84 5.3 5.84c13.93,-8.47 25.03,-17.23 32.25,-25.87 7.06,-8.46 11.25,-17.82 8.83,-27.36l-0.29 -1.17 -0.72 -1.08 -107.69 -163.3 9.38 -6.05 107.73 163.36 2.19 4.16c10.08,26.35 -4.74,53.81 -42.4,76.72 -33.65,20.46 -84.65,37.72 -145.01,46.61 -60.37,8.89 -118.58,7.7 -163.72,-1.16 -50.52,-9.92 -84.05,-30.26 -94.58,-56.54l-1.13 -4.32z"/>
    <path id="_1_0" class="fil2 str0" d="M7232.66 4098.1l-24.97 -175.55 12.83 2.78 24.96 175.48 0.17 1.16 0.6 1.12c4.92,9.18 15.58,16.36 28.13,21.93 12.84,5.69 29.2,10.39 47.89,14.07l0.4 -6.68 -0.4 6.68c44.93,8.82 102.41,9.74 161.96,0.97 59.55,-8.77 110.08,-25.59 143.59,-45.96l-5.3 -5.84 5.3 5.84c13.93,-8.47 25.03,-17.23 32.25,-25.87 7.06,-8.46 11.25,-17.82 8.83,-27.36l-0.29 -1.17 -0.72 -1.08 -107.69 -163.3 9.38 -6.05 107.73 163.36 2.19 4.16c10.08,26.35 -4.74,53.81 -42.4,76.72 -33.65,20.46 -84.65,37.72 -145.01,46.61 -60.37,8.89 -118.58,7.7 -163.72,-1.16 -50.52,-9.92 -84.05,-30.26 -94.58,-56.54l-1.13 -4.32z"/>
   </g>
   <g>
    <path class="fil1" d="M7362.4 3823.14c48.95,-7.31 96.6,-5.2 133.89,3.87 42.2,10.25 71.25,30.06 81.14,55.65 9.89,25.6 -1.53,51.45 -31.64,72.51 -26.61,18.61 -67.51,33.96 -116.46,41.28 -48.96,7.32 -96.61,5.19 -133.9,-3.87 -42.2,-10.25 -71.24,-30.05 -81.13,-55.65 -9.89,-25.61 1.52,-51.46 31.63,-72.51 26.61,-18.62 67.51,-33.97 116.47,-41.28zm139.94 24.72c-36.96,-8.98 -83.74,-10.76 -131.78,-3.58 -48.04,7.18 -88.42,21.97 -114.79,40.42 -11.22,7.85 -20.03,16.09 -25.4,24.32 -5.3,8.12 -7.8,17.14 -4.32,26.15 3.48,9 12.29,16.33 22.95,22.07 10.79,5.82 24.65,10.66 40.39,14.49 36.96,8.99 83.74,10.76 131.77,3.58 48.04,-7.18 88.42,-21.98 114.79,-40.42 11.23,-7.86 20.03,-16.09 25.41,-24.32 5.29,-8.13 7.8,-17.15 4.32,-26.15 -3.48,-9.01 -12.3,-16.34 -22.95,-22.07 -10.79,-5.82 -24.65,-10.67 -40.39,-14.49z"/>
    <path id="_1_0_1" class="fil2 str0" d="M7362.4 3823.14c48.95,-7.31 96.6,-5.2 133.89,3.87 42.2,10.25 71.25,30.06 81.14,55.65 9.89,25.6 -1.53,51.45 -31.64,72.51 -26.61,18.61 -67.51,33.96 -116.46,41.28 -48.96,7.32 -96.61,5.19 -133.9,-3.87 -42.2,-10.25 -71.24,-30.05 -81.13,-55.65 -9.89,-25.61 1.52,-51.46 31.63,-72.51 26.61,-18.62 67.51,-33.97 116.47,-41.28zm139.94 24.72c-36.96,-8.98 -83.74,-10.76 -131.78,-3.58 -48.04,7.18 -88.42,21.97 -114.79,40.42 -11.22,7.85 -20.03,16.09 -25.4,24.32 -5.3,8.12 -7.8,17.14 -4.32,26.15 3.48,9 12.29,16.33 22.95,22.07 10.79,5.82 24.65,10.66 40.39,14.49 36.96,8.99 83.74,10.76 131.77,3.58 48.04,-7.18 88.42,-21.98 114.79,-40.42 11.23,-7.86 20.03,-16.09 25.41,-24.32 5.29,-8.13 7.8,-17.15 4.32,-26.15 -3.48,-9.01 -12.3,-16.34 -22.95,-22.07 -10.79,-5.82 -24.65,-10.67 -40.39,-14.49z"/>
   </g>
  </g>
  <path class="fil3" d="M4758.94 3203.83c-17.27,-65.39 -75.83,-123.95 -130.8,-130.8 -54.96,-6.86 -85.52,40.59 -68.25,105.97 17.27,65.38 75.83,123.94 130.8,130.8 54.96,6.85 85.52,-40.59 68.25,-105.97z"/>
  <g id="_105553338948576">
   <path class="fil0" d="M586.36 3535.9c5.78,-1.13 12.31,0.5 18.49,4.13 3.73,2.19 7.32,5.12 10.56,8.62l89.89 -17.5c-0.18,-4.1 0.42,-7.84 1.74,-11.01 2.18,-5.26 6.31,-8.97 12.09,-10.09 6.69,-1.3 14.34,1.05 21.28,5.9 6.96,4.86 13.22,12.21 17.13,20.92 1.82,4.03 2.96,8.07 3.49,11.96 0.15,1.05 0.24,2.09 0.29,3.1 0.8,0.86 1.57,1.77 2.32,2.7 2.77,3.45 5.15,7.25 6.97,11.28 3.91,8.71 4.74,17.12 2.92,23.68 -1.82,6.56 -6.28,11.27 -12.98,12.58 -6.55,1.27 -14.04,-0.98 -20.91,-5.67 -4,-2.73 -7.78,-6.31 -11.04,-10.5l-87.37 17.01c0.73,4.69 0.51,9.03 -0.59,12.76 -1.88,6.4 -6.3,10.97 -12.85,12.25 -6.69,1.3 -14.34,-1.05 -21.29,-5.91 -6.95,-4.85 -13.21,-12.2 -17.12,-20.91 -1.82,-4.03 -2.97,-8.08 -3.5,-11.97 -0.14,-1.05 -0.23,-2.08 -0.28,-3.09 -0.8,-0.87 -1.57,-1.77 -2.32,-2.71 -2.77,-3.44 -5.15,-7.25 -6.97,-11.28 -3.91,-8.71 -4.75,-17.12 -2.93,-23.68 1.82,-6.56 6.29,-11.27 12.98,-12.57l0 0zm15.68 22.15c-2.1,-1.22 -4.33,-1.77 -6.34,-1.38 -2.28,0.45 -3.81,2.05 -4.43,4.29 -0.62,2.24 -0.33,5.11 1,8.08 0.67,1.49 1.47,2.8 2.35,3.89 0.94,1.17 2.05,2.22 3.24,3.1l8.35 6.09 -1.96 8.1c-0.28,1.17 -0.34,2.45 -0.16,3.76 0.17,1.24 0.58,2.62 1.24,4.11 1.34,2.98 3.48,5.49 5.85,7.14 2.37,1.65 4.98,2.46 7.27,2.01 2.26,-0.43 3.79,-1.99 4.42,-4.16 0.65,-2.19 0.42,-4.99 -0.82,-7.89l-4.36 -10.19 7.74 -1.5 100.28 -19.53 7.75 -1.5 4.76 10.1c1.36,2.88 3.49,5.31 5.84,6.92 2.33,1.59 4.89,2.35 7.15,1.91 2.29,-0.45 3.82,-2.06 4.44,-4.29 0.62,-2.24 0.33,-5.11 -1.01,-8.09 -0.66,-1.48 -1.46,-2.79 -2.34,-3.88 -0.94,-1.18 -2.05,-2.23 -3.25,-3.1l-8.34 -6.1 1.96 -8.1c0.28,-1.17 0.34,-2.44 0.16,-3.76 -0.17,-1.23 -0.58,-2.62 -1.25,-4.11 -1.34,-2.97 -3.47,-5.48 -5.84,-7.14 -2.37,-1.65 -4.99,-2.46 -7.27,-2.01 -2.01,0.39 -3.43,1.65 -4.17,3.43 -0.76,1.83 -0.83,4.19 -0.11,6.72l2.45 8.61 -6.48 1.26 -100.92 19.65 -6.49 1.26 -5.06 -8.1c-1.49,-2.38 -3.5,-4.33 -5.65,-5.6l0 0z"/>
   <g>
    <path class="fil1" d="M442.39 3607.03l-24.97 -175.55 12.83 2.78 24.96 175.48 0.17 1.16 0.6 1.12c4.92,9.18 15.58,16.36 28.13,21.93 12.84,5.69 29.2,10.39 47.89,14.07l0.4 -6.68 -0.4 6.68c44.93,8.82 102.41,9.74 161.96,0.97 59.55,-8.77 110.08,-25.59 143.59,-45.96l-5.3 -5.84 5.3 5.84c13.93,-8.47 25.03,-17.23 32.25,-25.87 7.06,-8.46 11.25,-17.82 8.83,-27.36l-0.29 -1.17 -0.72 -1.08 -107.69 -163.3 9.38 -6.05 107.73 163.36 2.19 4.16c10.08,26.35 -4.74,53.81 -42.4,76.72 -33.65,20.46 -84.65,37.72 -145.01,46.61 -60.37,8.89 -118.58,7.7 -163.72,-1.16 -50.52,-9.92 -84.05,-30.26 -94.58,-56.54l-1.13 -4.32z"/>
    <path id="_1_2" class="fil2 str0" d="M442.39 3607.03l-24.97 -175.55 12.83 2.78 24.96 175.48 0.17 1.16 0.6 1.12c4.92,9.18 15.58,16.36 28.13,21.93 12.84,5.69 29.2,10.39 47.89,14.07l0.4 -6.68 -0.4 6.68c44.93,8.82 102.41,9.74 161.96,0.97 59.55,-8.77 110.08,-25.59 143.59,-45.96l-5.3 -5.84 5.3 5.84c13.93,-8.47 25.03,-17.23 32.25,-25.87 7.06,-8.46 11.25,-17.82 8.83,-27.36l-0.29 -1.17 -0.72 -1.08 -107.69 -163.3 9.38 -6.05 107.73 163.36 2.19 4.16c10.08,26.35 -4.74,53.81 -42.4,76.72 -33.65,20.46 -84.65,37.72 -145.01,46.61 -60.37,8.89 -118.58,7.7 -163.72,-1.16 -50.52,-9.92 -84.05,-30.26 -94.58,-56.54l-1.13 -4.32z"/>
   </g>
   <g>
    <path class="fil1" d="M572.13 3332.07c48.95,-7.31 96.6,-5.2 133.89,3.87 42.2,10.25 71.25,30.06 81.14,55.65 9.89,25.6 -1.53,51.45 -31.64,72.51 -26.61,18.61 -67.51,33.96 -116.46,41.28 -48.96,7.32 -96.61,5.19 -133.9,-3.87 -42.2,-10.25 -71.24,-30.05 -81.13,-55.65 -9.89,-25.61 1.52,-51.46 31.63,-72.51 26.61,-18.62 67.51,-33.97 116.47,-41.28zm139.94 24.72c-36.96,-8.98 -83.74,-10.76 -131.78,-3.58 -48.04,7.18 -88.42,21.97 -114.79,40.42 -11.22,7.85 -20.03,16.09 -25.4,24.32 -5.3,8.12 -7.8,17.14 -4.32,26.15 3.48,9 12.29,16.33 22.95,22.07 10.79,5.82 24.65,10.66 40.39,14.49 36.96,8.99 83.74,10.76 131.77,3.58 48.04,-7.18 88.42,-21.98 114.79,-40.42 11.23,-7.86 20.03,-16.09 25.41,-24.32 5.29,-8.13 7.8,-17.15 4.32,-26.15 -3.48,-9.01 -12.3,-16.34 -22.95,-22.07 -10.79,-5.82 -24.65,-10.67 -40.39,-14.49z"/>
    <path id="_1_0_3" class="fil2 str0" d="M572.13 3332.07c48.95,-7.31 96.6,-5.2 133.89,3.87 42.2,10.25 71.25,30.06 81.14,55.65 9.89,25.6 -1.53,51.45 -31.64,72.51 -26.61,18.61 -67.51,33.96 -116.46,41.28 -48.96,7.32 -96.61,5.19 -133.9,-3.87 -42.2,-10.25 -71.24,-30.05 -81.13,-55.65 -9.89,-25.61 1.52,-51.46 31.63,-72.51 26.61,-18.62 67.51,-33.97 116.47,-41.28zm139.94 24.72c-36.96,-8.98 -83.74,-10.76 -131.78,-3.58 -48.04,7.18 -88.42,21.97 -114.79,40.42 -11.22,7.85 -20.03,16.09 -25.4,24.32 -5.3,8.12 -7.8,17.14 -4.32,26.15 3.48,9 12.29,16.33 22.95,22.07 10.79,5.82 24.65,10.66 40.39,14.49 36.96,8.99 83.74,10.76 131.77,3.58 48.04,-7.18 88.42,-21.98 114.79,-40.42 11.23,-7.86 20.03,-16.09 25.41,-24.32 5.29,-8.13 7.8,-17.15 4.32,-26.15 -3.48,-9.01 -12.3,-16.34 -22.95,-22.07 -10.79,-5.82 -24.65,-10.67 -40.39,-14.49z"/>
   </g>
  </g>
  <g id="_105553338950080">
   <path class="fil0" d="M927.16 4988.65l-16.3 -43.5c-4.61,-2.85 -9.45,-8.02 -14.29,-13.19 -4.1,-4.39 -7.78,-8.86 -7.99,-8.81 -0.4,0.08 -1.14,5.75 -1.89,11.42 -1.33,10.09 -2.67,20.2 -9.67,21.7 -7.51,1.61 -15.06,-7.07 -22.61,-15.75 -3.67,-4.23 -7.35,-8.46 -7.38,-8.45 -2.13,0.45 2.14,4.33 2.14,9.13 0,10.52 0,21.05 -5.83,22.3 -6.88,1.48 -14.8,-6.81 -22.72,-15.11 -4.22,-4.42 -8.34,-8.87 -8.39,-8.85 -0.05,0.01 -0.48,5.43 -1.01,10.87 -0.98,10.2 -1.98,20.41 -8.86,21.88 -5.83,1.25 -13.13,-7.7 -20.43,-16.66 -3.32,-4.08 -2.38,-9.08 -4.51,-8.62 -0.03,0 -0.22,5.06 -0.42,10.12 -0.41,10.4 -0.81,20.79 -8.32,22.39 -7,1.51 -15.14,-6.56 -23.28,-14.63 -4.57,-4.52 -9.13,-9.05 -9.53,-8.96 -0.21,0.04 -0.24,5.31 -0.69,10.67 -0.54,6.33 -1.07,12.65 -3.01,16.91l16.3 43.5 -13.78 2.96 -18.91 -50.46 -3.94 -10.53 6.89 -1.48c0.21,-0.04 0.24,-5.31 0.69,-10.67 0.87,-10.24 1.73,-20.49 8.56,-21.95 7,-1.5 15.14,6.56 23.28,14.63 4.57,4.52 9.13,9.05 9.53,8.97 0.02,-0.01 0.22,-5.07 0.42,-10.13 0.4,-10.39 0.81,-20.78 8.32,-22.39 5.83,-1.25 13.13,7.7 20.44,16.66 3.32,4.08 2.37,9.08 4.51,8.62 0.05,-0.01 0.47,-5.43 1,-10.87 0.99,-10.2 1.98,-20.41 8.86,-21.88 6.88,-1.48 14.79,6.81 22.71,15.11 4.22,4.42 8.35,8.86 8.4,8.85 2.13,-0.46 -2.14,-4.34 -2.14,-9.13 0,-10.53 0,-21.06 5.83,-22.31 7.52,-1.61 15.07,7.07 22.62,15.76 3.67,4.22 7.35,8.45 7.38,8.45 0.39,-0.09 1.14,-5.75 1.89,-11.42 1.33,-10.1 2.66,-20.2 9.66,-21.7 6.84,-1.47 14.67,6.91 22.51,15.28 4.1,4.38 7.79,8.85 8,8.81l6.89 -1.48 3.94 10.52 18.91 50.47 -13.78 2.95 0 0z"/>
   <polygon class="fil0" points="732.96,5011.55 929.37,4961.5 937.98,4987.92 741.56,5037.97 "/>
   <path class="fil0" d="M842.04 5243.99c-9.98,-37.22 -14.94,-74.69 -14.4,-109.46 0.53,-33.75 6.26,-65.06 17.62,-91.26l2.71 -6.26 6.46 6.01c8.83,8.21 15.92,18.65 21.54,30.94 4.63,10.14 8.27,21.58 11.07,34.09 19.63,13.61 34.39,21.86 45.29,25.85 10.24,3.75 16.46,3.57 19.8,0.56l4.69 -4.22 5.37 8.03c4.72,7.05 8.15,13.51 10.49,19.41 5.73,14.46 5.06,25.3 0.48,33.4 -4.1,7.22 -11.38,11.88 -19.84,14.83 -10.11,3.52 -21.98,4.65 -31.73,4.82l18.18 48.18 3.01 7.96 -5.29 1.8c-12.63,4.29 -26.66,4.4 -41.78,1.3 -14.82,-3.05 -30.69,-9.23 -47.3,-17.63l-4.77 -2.41 -1.6 -5.94 0 0zm-0.21 -102.72c-0.49,30.96 3.64,64.12 11.99,97.18 13.67,6.58 26.73,11.44 38.96,13.96 11.23,2.3 21.75,2.6 31.4,0.4l-18.86 -49.96 -3.85 -10.22 7.7 0.26c9.86,0.32 24.51,-0.21 36.16,-4.27 6.74,-2.35 12.41,-5.83 15.3,-10.93 2.4,-4.22 2.74,-9.88 -0.26,-17.45 -0.83,-2.1 -1.9,-4.36 -3.24,-6.78 -5.68,1.89 -13.42,1.27 -23.74,-2.51 -12.87,-4.72 -30.3,-14.57 -53.54,-31.01l-4.27 -3.01 -1.08 -5.42c-2.54,-12.67 -5.9,-23.98 -10.31,-33.6 -2.57,-5.65 -5.51,-10.69 -8.83,-15.05 -8.67,22.93 -13.08,49.69 -13.53,78.41l0 0z"/>
   <path class="fil0" d="M922.57 4988.74c-2.73,-4.48 -7.19,-6.53 -9.95,-4.58 -2.76,1.94 -2.79,7.16 -0.05,11.63 36.49,59.91 66.39,117.87 88.54,173.55 21.18,53.21 35.3,104.39 41.38,153.24l-163.29 32.99c-30.31,-43.96 -55.44,-92.92 -76.03,-146.24 -21.54,-55.8 -38.14,-116.45 -50.52,-181.23 -0.93,-4.84 -4.74,-9.28 -8.51,-9.91 -3.77,-0.62 -6.08,2.79 -5.15,7.63 12.66,66.25 29.7,128.43 51.87,185.85 22.2,57.52 49.52,110.21 82.71,157.36 2.18,3.41 5.53,5.52 8.28,4.96l171.62 -34.67c2.54,-0.42 4.09,-3.04 3.68,-6.76l-6.99 -2.04 6.98 2.03c-5.89,-52.83 -20.88,-108.22 -43.81,-165.83 -22.8,-57.28 -53.44,-116.72 -90.76,-177.98l0 0z"/>
  </g>
  <g id="_105553338951328">
   <path class="fil0" d="M2791.06 6311.6c-19.65,7.08 -37.83,0.64 -53.04,-13.39 -8.08,-7.46 -14.93,-16.94 -20.36,-27.49 -5.03,-9.77 -8.9,-20.58 -11.44,-31.55 -7.57,-32.65 -3.27,-67.85 17.63,-82.18 -11.07,-21.61 -15.33,-43.03 -13.15,-61.15 2.55,-21.2 13.97,-37.86 33.66,-44.95 1.93,-0.7 -0.2,0 1.04,-0.42 19.49,-6.55 43.29,-2.58 66.18,9.21 19.74,10.17 38.79,26.19 53.77,46.33 12.02,-1.35 25.51,1.83 38.6,8.58 11.45,5.9 22.58,14.54 32.1,25.26 2.31,-1.81 4.98,-3.27 7.98,-4.36 0.38,-0.13 0.55,-0.19 0.6,-0.21l-0.01 -0.02c-0.15,0.04 -1.02,0.32 -0.02,-0.02 11.13,-3.75 24.74,-1.47 37.84,5.28 13.07,6.74 25.6,17.95 34.62,32.12 0.31,0.49 0.45,0.7 0.49,0.77l0.01 0c-0.09,-0.18 -0.78,-1.29 0.02,-0.01 8.97,14.41 12.56,29.11 11.1,41.22 -1.45,12.08 -7.97,21.58 -19.2,25.62 -6.73,2.42 -33.53,11 -66.65,21.63 -53.52,17.14 -123.62,39.6 -151.77,49.73l0 0zm-41.38 -29c6.56,6.06 15.31,8.52 25.97,4.68 28.31,-10.19 98.53,-32.7 152.14,-49.88 33.01,-10.57 59.7,-19.12 66.28,-21.49 5.99,-2.16 9.48,-7.29 10.27,-13.82 0.78,-6.51 -1.16,-14.43 -6.01,-22.22 -1.03,-1.66 -0.13,-0.27 0.04,-0.01l0 0 -0.3 -0.48c-4.75,-7.45 -11.35,-13.36 -18.25,-16.91 -6.87,-3.54 -14.05,-4.72 -19.97,-2.73 -1.31,0.44 -0.23,0.04 -0.03,-0.04l0 -0.01 -0.38 0.14c-2.09,0.75 -3.88,1.87 -5.36,3.28 -1.51,1.44 -2.7,3.22 -3.55,5.26l-7.33 17.54 -13.95 -22.94 -0.13 -0.22 -0.03 -0.04c-0.73,-1.21 1.47,2.42 -0.25,-0.35 -1.52,-2.44 0.76,1.12 -0.4,-0.7 -7.05,-11.07 -16.86,-19.85 -27.11,-25.13 -10.21,-5.26 -20.87,-7.02 -29.65,-4.07 -1.93,0.65 0.85,-0.37 -0.57,0.15l-9.63 3.45 -7.7 -12.38c-1.49,-2.4 0.4,0.55 -0.65,-1.11 -11.49,-18.04 -27.49,-32.35 -44.17,-40.95 -16.65,-8.58 -34.02,-11.45 -48.31,-6.65 -1.89,0.63 0.41,-0.21 -0.89,0.25 -14.44,5.21 -22.83,17.49 -24.72,33.16 -1.88,15.63 2.77,34.64 14.38,53.32l7.48 12.02 -9.39 3.38c-20.02,7.2 -24.09,37.91 -17.48,66.44 1.94,8.37 4.8,16.44 8.45,23.53 3.25,6.31 7.03,11.69 11.2,15.53l0 0zm194.95 -147.32c0.02,-0.02 0.02,-0.02 -0.01,-0.02l0.01 0.02zm15.19 24.42c0.03,-0.02 0.04,-0.03 0,-0.01l0 0.01zm57.73 13.71c0.03,0.03 0.03,0.02 0.01,0l-0.01 0zm-19.18 6.45c0.03,0.04 0.04,0.05 0.01,0l-0.01 0z"/>
   <path class="fil0" d="M2812.51 6349.02c7.22,-2.46 15.89,-1.52 24.47,2.05 5.18,2.16 10.32,5.28 15.09,9.21l112.42 -38.37c-0.96,-5.23 -0.85,-10.15 0.29,-14.45 1.87,-7.15 6.52,-12.63 13.74,-15.1 8.37,-2.86 18.61,-1.19 28.39,3.83 9.79,5 19.14,13.35 25.7,23.84 3.05,4.86 5.24,9.85 6.6,14.76 0.37,1.32 0.68,2.64 0.92,3.92 1.17,0.97 2.32,2 3.46,3.06 4.16,3.94 7.9,8.41 10.94,13.27 6.57,10.5 9.13,21.16 7.95,29.91 -1.18,8.75 -6.09,15.59 -14.46,18.45 -8.19,2.8 -18.21,1.22 -27.87,-3.59 -5.62,-2.8 -11.11,-6.73 -16.04,-11.54l-109.25 37.29c1.76,5.89 2.24,11.52 1.5,16.5 -1.29,8.55 -6.16,15.21 -14.35,18.01 -8.37,2.86 -18.61,1.19 -28.4,-3.83 -9.79,-5 -19.13,-13.35 -25.69,-23.84 -3.05,-4.86 -5.24,-9.86 -6.61,-14.76 -0.37,-1.33 -0.67,-2.64 -0.91,-3.92 -1.18,-0.98 -2.33,-2 -3.46,-3.07 -4.17,-3.94 -7.9,-8.41 -10.94,-13.27 -6.57,-10.49 -9.13,-21.15 -7.95,-29.91 1.18,-8.75 6.09,-15.59 14.46,-18.45l0 0zm24.05 25.71c-2.91,-1.21 -5.88,-1.52 -8.38,-0.66 -2.86,0.97 -4.54,3.31 -4.94,6.29 -0.4,2.99 0.47,6.63 2.72,10.21 1.12,1.79 2.37,3.33 3.7,4.58 1.42,1.34 3.02,2.49 4.71,3.41l11.8 6.36 -1.08 10.75c-0.16,1.55 -0.01,3.2 0.46,4.86 0.43,1.56 1.2,3.26 2.32,5.05 2.25,3.59 5.43,6.44 8.77,8.15 3.34,1.7 6.84,2.27 9.7,1.3 2.82,-0.96 4.51,-3.24 4.94,-6.13 0.44,-2.93 -0.35,-6.49 -2.45,-10l-7.4 -12.31 9.69 -3.31 125.39 -42.8 9.68 -3.3 7.91 12.13c2.25,3.46 5.42,6.21 8.73,7.87 3.27,1.62 6.69,2.15 9.52,1.18 2.86,-0.97 4.54,-3.31 4.94,-6.3 0.4,-2.98 -0.48,-6.62 -2.72,-10.21 -1.12,-1.78 -2.38,-3.32 -3.7,-4.57 -1.42,-1.35 -3.02,-2.5 -4.72,-3.41l-11.8 -6.36 1.09 -10.76c0.16,-1.54 0,-3.19 -0.46,-4.86 -0.43,-1.55 -1.2,-3.26 -2.33,-5.05 -2.24,-3.58 -5.43,-6.43 -8.76,-8.14 -3.34,-1.71 -6.84,-2.28 -9.7,-1.3 -2.51,0.86 -4.11,2.72 -4.75,5.14 -0.65,2.48 -0.32,5.54 1.04,8.65l4.68 10.63 -8.11 2.77 -126.2 43.07 -8.11 2.77 -7.93 -9.51c-2.33,-2.8 -5.27,-4.95 -8.25,-6.19l0 0z"/>
   <path class="fil0" d="M2690.62 6323.79l352.59 -120.31c9.65,-3.29 20.42,-1.23 31.21,4.29 11.18,5.72 22.18,15.28 31.59,26.22l117.24 136.29c2.15,2.49 3.96,4.94 5.45,7.33 6.31,10.09 8.43,20.38 7.26,29.33 -1.06,8.18 -4.98,15.28 -10.98,19.85 -2.29,1.75 -4.82,3.13 -7.53,4.05l-405.21 138.26c-2.72,0.93 -5.77,1.46 -9.07,1.61 -8.59,0.41 -18.46,-1.98 -27.58,-6.68 -9.99,-5.14 -19.24,-13.01 -25.55,-23.1 -1.5,-2.39 -2.85,-4.99 -4.03,-7.81l-64.62 -154.25c-5.18,-12.39 -7.91,-24.76 -6.57,-34.76 1.3,-9.64 6.16,-17.03 15.8,-20.32l0 0zm368.26 -95.28l-352.6 120.3c-3.82,1.31 -5.75,4.29 -6.28,8.19 -0.75,5.58 0.98,13 4.22,20.73l64.61 154.25c0.28,0.65 0.66,1.36 1.15,2.15 1.92,3.05 5.09,5.64 8.69,7.49 4.47,2.3 9.34,3.46 13.63,3.26 1.45,-0.07 2.88,-0.33 4.27,-0.8l405.22 -138.27c1.38,-0.47 2.58,-1.1 3.59,-1.87 3,-2.29 4.95,-5.79 5.47,-9.78 0.42,-3.23 -0.18,-6.69 -2.1,-9.75 -0.48,-0.77 -0.97,-1.46 -1.47,-2.04l-117.24 -136.29c-5.87,-6.82 -12.4,-12.61 -18.64,-15.8 -4.37,-2.24 -8.69,-3.08 -12.52,-1.77l0 0z"/>
  </g>
  <g id="_105553209988704">
   <path class="fil0" d="M4828.16 5034.51c5.78,-1.13 12.31,0.5 18.49,4.13 3.73,2.19 7.32,5.12 10.56,8.62l89.89 -17.5c-0.18,-4.1 0.42,-7.84 1.74,-11.01 2.18,-5.26 6.31,-8.97 12.09,-10.09 6.69,-1.3 14.34,1.05 21.28,5.9 6.96,4.86 13.22,12.21 17.13,20.92 1.82,4.03 2.96,8.07 3.49,11.96 0.15,1.05 0.24,2.09 0.29,3.1 0.8,0.86 1.57,1.77 2.32,2.7 2.77,3.45 5.15,7.25 6.97,11.28 3.91,8.71 4.74,17.12 2.92,23.68 -1.82,6.56 -6.28,11.27 -12.98,12.58 -6.55,1.27 -14.04,-0.98 -20.91,-5.67 -4,-2.73 -7.78,-6.31 -11.04,-10.5l-87.37 17.01c0.73,4.69 0.51,9.03 -0.59,12.76 -1.88,6.4 -6.3,10.97 -12.85,12.25 -6.69,1.3 -14.34,-1.05 -21.29,-5.91 -6.95,-4.85 -13.21,-12.2 -17.12,-20.91 -1.82,-4.03 -2.97,-8.08 -3.5,-11.97 -0.14,-1.05 -0.23,-2.08 -0.28,-3.09 -0.8,-0.87 -1.57,-1.77 -2.32,-2.71 -2.77,-3.44 -5.15,-7.25 -6.97,-11.28 -3.91,-8.71 -4.75,-17.12 -2.93,-23.68 1.82,-6.56 6.29,-11.27 12.98,-12.57l0 0zm15.68 22.15c-2.1,-1.22 -4.33,-1.77 -6.34,-1.38 -2.28,0.45 -3.81,2.05 -4.43,4.29 -0.62,2.24 -0.33,5.11 1,8.08 0.67,1.49 1.47,2.8 2.35,3.89 0.94,1.17 2.05,2.22 3.24,3.1l8.35 6.09 -1.96 8.1c-0.28,1.17 -0.34,2.45 -0.16,3.76 0.17,1.24 0.58,2.62 1.24,4.11 1.34,2.98 3.48,5.49 5.85,7.14 2.37,1.65 4.98,2.46 7.27,2.01 2.26,-0.43 3.79,-1.99 4.42,-4.16 0.65,-2.19 0.42,-4.99 -0.82,-7.89l-4.36 -10.19 7.74 -1.5 100.28 -19.53 7.75 -1.5 4.76 10.1c1.36,2.88 3.49,5.31 5.84,6.92 2.33,1.59 4.89,2.35 7.15,1.91 2.29,-0.45 3.82,-2.06 4.44,-4.29 0.62,-2.24 0.33,-5.11 -1.01,-8.09 -0.66,-1.48 -1.46,-2.79 -2.34,-3.88 -0.94,-1.18 -2.05,-2.23 -3.25,-3.1l-8.34 -6.1 1.96 -8.1c0.28,-1.17 0.34,-2.44 0.16,-3.76 -0.17,-1.23 -0.58,-2.62 -1.25,-4.11 -1.34,-2.97 -3.47,-5.48 -5.84,-7.14 -2.37,-1.65 -4.99,-2.46 -7.27,-2.01 -2.01,0.39 -3.43,1.65 -4.17,3.43 -0.76,1.83 -0.83,4.19 -0.11,6.72l2.45 8.61 -6.48 1.26 -100.92 19.65 -6.49 1.26 -5.06 -8.1c-1.49,-2.38 -3.5,-4.33 -5.65,-5.6l0 0z"/>
   <g>
    <path class="fil1" d="M4684.19 5105.64l-24.97 -175.55 12.83 2.78 24.96 175.48 0.17 1.16 0.6 1.12c4.92,9.18 15.58,16.36 28.13,21.93 12.84,5.69 29.2,10.39 47.89,14.07l0.4 -6.68 -0.4 6.68c44.93,8.82 102.41,9.74 161.96,0.97 59.55,-8.77 110.08,-25.59 143.59,-45.96l-5.3 -5.84 5.3 5.84c13.93,-8.47 25.03,-17.23 32.25,-25.87 7.06,-8.46 11.25,-17.82 8.83,-27.36l-0.29 -1.17 -0.72 -1.08 -107.69 -163.3 9.38 -6.05 107.73 163.36 2.19 4.16c10.08,26.35 -4.74,53.81 -42.4,76.72 -33.65,20.46 -84.65,37.72 -145.01,46.61 -60.37,8.89 -118.58,7.7 -163.72,-1.16 -50.52,-9.92 -84.05,-30.26 -94.58,-56.54l-1.13 -4.32z"/>
    <path id="_1_4" class="fil2 str0" d="M4684.19 5105.64l-24.97 -175.55 12.83 2.78 24.96 175.48 0.17 1.16 0.6 1.12c4.92,9.18 15.58,16.36 28.13,21.93 12.84,5.69 29.2,10.39 47.89,14.07l0.4 -6.68 -0.4 6.68c44.93,8.82 102.41,9.74 161.96,0.97 59.55,-8.77 110.08,-25.59 143.59,-45.96l-5.3 -5.84 5.3 5.84c13.93,-8.47 25.03,-17.23 32.25,-25.87 7.06,-8.46 11.25,-17.82 8.83,-27.36l-0.29 -1.17 -0.72 -1.08 -107.69 -163.3 9.38 -6.05 107.73 163.36 2.19 4.16c10.08,26.35 -4.74,53.81 -42.4,76.72 -33.65,20.46 -84.65,37.72 -145.01,46.61 -60.37,8.89 -118.58,7.7 -163.72,-1.16 -50.52,-9.92 -84.05,-30.26 -94.58,-56.54l-1.13 -4.32z"/>
   </g>
   <g>
    <path class="fil1" d="M4813.93 4830.68c48.95,-7.31 96.6,-5.2 133.89,3.87 42.2,10.25 71.25,30.06 81.14,55.65 9.89,25.6 -1.53,51.45 -31.64,72.51 -26.61,18.61 -67.51,33.96 -116.46,41.28 -48.96,7.32 -96.61,5.19 -133.9,-3.87 -42.2,-10.25 -71.24,-30.05 -81.13,-55.65 -9.89,-25.61 1.52,-51.46 31.63,-72.51 26.61,-18.62 67.51,-33.97 116.47,-41.28zm139.94 24.72c-36.96,-8.98 -83.74,-10.76 -131.78,-3.58 -48.04,7.18 -88.42,21.97 -114.79,40.42 -11.22,7.85 -20.03,16.09 -25.4,24.32 -5.3,8.12 -7.8,17.14 -4.32,26.15 3.48,9 12.29,16.33 22.95,22.07 10.79,5.82 24.65,10.66 40.39,14.49 36.96,8.99 83.74,10.76 131.77,3.58 48.04,-7.18 88.42,-21.98 114.79,-40.42 11.23,-7.86 20.03,-16.09 25.41,-24.32 5.29,-8.13 7.8,-17.15 4.32,-26.15 -3.48,-9.01 -12.3,-16.34 -22.95,-22.07 -10.79,-5.82 -24.65,-10.67 -40.39,-14.49z"/>
    <path id="_1_0_5" class="fil2 str0" d="M4813.93 4830.68c48.95,-7.31 96.6,-5.2 133.89,3.87 42.2,10.25 71.25,30.06 81.14,55.65 9.89,25.6 -1.53,51.45 -31.64,72.51 -26.61,18.61 -67.51,33.96 -116.46,41.28 -48.96,7.32 -96.61,5.19 -133.9,-3.87 -42.2,-10.25 -71.24,-30.05 -81.13,-55.65 -9.89,-25.61 1.52,-51.46 31.63,-72.51 26.61,-18.62 67.51,-33.97 116.47,-41.28zm139.94 24.72c-36.96,-8.98 -83.74,-10.76 -131.78,-3.58 -48.04,7.18 -88.42,21.97 -114.79,40.42 -11.22,7.85 -20.03,16.09 -25.4,24.32 -5.3,8.12 -7.8,17.14 -4.32,26.15 3.48,9 12.29,16.33 22.95,22.07 10.79,5.82 24.65,10.66 40.39,14.49 36.96,8.99 83.74,10.76 131.77,3.58 48.04,-7.18 88.42,-21.98 114.79,-40.42 11.23,-7.86 20.03,-16.09 25.41,-24.32 5.29,-8.13 7.8,-17.15 4.32,-26.15 -3.48,-9.01 -12.3,-16.34 -22.95,-22.07 -10.79,-5.82 -24.65,-10.67 -40.39,-14.49z"/>
   </g>
  </g>
  <g id="_105553209983840">
   <path class="fil0" d="M6222.46 6399.85c12.49,-2.43 26.58,1.09 39.94,8.94 8.06,4.73 15.83,11.05 22.82,18.61l194.24 -37.81c-0.38,-8.85 0.91,-16.94 3.76,-23.78 4.71,-11.37 13.64,-19.37 26.12,-21.8 14.46,-2.82 30.98,2.26 45.99,12.75 15.02,10.49 28.55,26.38 37,45.19 3.93,8.71 6.41,17.45 7.55,25.86 0.31,2.27 0.51,4.51 0.62,6.68 1.72,1.87 3.38,3.83 5.02,5.84 5.98,7.45 11.12,15.67 15.04,24.39 8.46,18.82 10.26,36.99 6.33,51.17 -3.93,14.17 -13.59,24.34 -28.04,27.16 -14.16,2.76 -30.35,-2.12 -45.19,-12.25 -8.65,-5.9 -16.81,-13.63 -23.85,-22.68l-188.8 36.75c1.57,10.13 1.1,19.52 -1.26,27.58 -4.07,13.81 -13.62,23.7 -27.78,26.46 -14.46,2.81 -30.98,-2.27 -46,-12.76 -15.02,-10.48 -28.54,-26.38 -37,-45.2 -3.92,-8.71 -6.4,-17.45 -7.54,-25.84 -0.31,-2.28 -0.51,-4.51 -0.62,-6.69 -1.72,-1.88 -3.4,-3.83 -5.02,-5.85 -5.98,-7.45 -11.12,-15.67 -15.04,-24.38 -8.46,-18.81 -10.27,-36.99 -6.34,-51.17 3.94,-14.18 13.59,-24.35 28.05,-27.17l0 0zm33.87 47.88c-4.53,-2.65 -9.35,-3.84 -13.69,-2.99 -4.93,0.96 -8.23,4.44 -9.58,9.26 -1.33,4.84 -0.72,11.06 2.17,17.47 1.44,3.22 3.17,6.05 5.07,8.41 2.04,2.53 4.43,4.79 7.01,6.69l18.04 13.17 -4.23 17.5c-0.62,2.52 -0.74,5.28 -0.35,8.13 0.36,2.68 1.24,5.65 2.68,8.87 2.9,6.43 7.52,11.85 12.63,15.43 5.13,3.57 10.77,5.31 15.71,4.35 4.88,-0.95 8.18,-4.31 9.55,-8.99 1.4,-4.74 0.9,-10.8 -1.77,-17.06l-9.42 -22.01 16.73 -3.25 216.68 -42.19 16.73 -3.26 10.3 21.83c2.93,6.22 7.53,11.48 12.62,14.97 5.03,3.42 10.56,5.07 15.45,4.11 4.94,-0.96 8.24,-4.43 9.59,-9.27 1.33,-4.84 0.71,-11.04 -2.17,-17.47 -1.45,-3.21 -3.18,-6.03 -5.07,-8.4 -2.04,-2.54 -4.43,-4.8 -7.01,-6.69l-18.04 -13.17 4.23 -17.51c0.61,-2.52 0.74,-5.28 0.35,-8.13 -0.36,-2.66 -1.24,-5.65 -2.69,-8.87 -2.89,-6.41 -7.51,-11.84 -12.62,-15.43 -5.13,-3.57 -10.78,-5.31 -15.71,-4.34 -4.34,0.84 -7.41,3.56 -9.01,7.4 -1.64,3.96 -1.8,9.07 -0.25,14.52l5.31 18.61 -14.02 2.73 -218.06 42.45 -14.02 2.73 -10.93 -17.51c-3.21,-5.14 -7.57,-9.36 -12.21,-12.09l0 0z"/>
  </g>
  <path class="fil3" d="M8696.68 5240.14c0,-47.15 -38.23,-85.38 -85.38,-85.38 -47.15,0 -85.37,38.23 -85.37,85.38 0,47.15 38.22,85.37 85.37,85.37 47.15,0 85.38,-38.22 85.38,-85.37z"/>
  <g id="_105553210080992">
   <path class="fil0" d="M9488.17 6904.28c-19.65,7.08 -37.83,0.64 -53.04,-13.39 -8.08,-7.46 -14.93,-16.94 -20.36,-27.49 -5.03,-9.77 -8.9,-20.58 -11.44,-31.55 -7.57,-32.65 -3.27,-67.85 17.63,-82.18 -11.07,-21.61 -15.33,-43.03 -13.15,-61.15 2.55,-21.2 13.97,-37.86 33.66,-44.95 1.93,-0.7 -0.2,0 1.04,-0.42 19.49,-6.55 43.29,-2.58 66.18,9.21 19.74,10.17 38.79,26.19 53.77,46.33 12.02,-1.35 25.51,1.83 38.6,8.58 11.45,5.9 22.58,14.54 32.1,25.26 2.31,-1.81 4.98,-3.27 7.98,-4.36 0.38,-0.13 0.55,-0.19 0.6,-0.21l-0.01 -0.02c-0.15,0.04 -1.02,0.32 -0.02,-0.02 11.13,-3.75 24.74,-1.47 37.84,5.28 13.07,6.74 25.6,17.95 34.62,32.12 0.31,0.49 0.45,0.7 0.49,0.77l0.01 0c-0.09,-0.18 -0.78,-1.29 0.02,-0.01 8.97,14.41 12.56,29.11 11.1,41.22 -1.45,12.08 -7.97,21.58 -19.2,25.62 -6.73,2.42 -33.53,11 -66.65,21.63 -53.52,17.14 -123.62,39.6 -151.77,49.73l0 0zm-41.38 -29c6.56,6.06 15.31,8.52 25.97,4.68 28.31,-10.19 98.53,-32.7 152.14,-49.88 33.01,-10.57 59.7,-19.12 66.28,-21.49 5.99,-2.16 9.48,-7.29 10.27,-13.82 0.78,-6.51 -1.16,-14.43 -6.01,-22.22 -1.03,-1.66 -0.13,-0.27 0.04,-0.01l0 0 -0.3 -0.48c-4.75,-7.45 -11.35,-13.36 -18.25,-16.91 -6.87,-3.54 -14.05,-4.72 -19.97,-2.73 -1.31,0.44 -0.23,0.04 -0.03,-0.04l0 -0.01 -0.38 0.14c-2.09,0.75 -3.88,1.87 -5.36,3.28 -1.51,1.44 -2.7,3.22 -3.55,5.26l-7.33 17.54 -13.95 -22.94 -0.13 -0.22 -0.03 -0.04c-0.73,-1.21 1.47,2.42 -0.25,-0.35 -1.52,-2.44 0.76,1.12 -0.4,-0.7 -7.05,-11.07 -16.86,-19.85 -27.11,-25.13 -10.21,-5.26 -20.87,-7.02 -29.65,-4.07 -1.93,0.65 0.85,-0.37 -0.57,0.15l-9.63 3.45 -7.7 -12.38c-1.49,-2.4 0.4,0.55 -0.65,-1.11 -11.49,-18.04 -27.49,-32.35 -44.17,-40.95 -16.65,-8.58 -34.02,-11.45 -48.31,-6.65 -1.89,0.63 0.41,-0.21 -0.89,0.25 -14.44,5.21 -22.83,17.49 -24.72,33.16 -1.88,15.63 2.77,34.64 14.38,53.32l7.48 12.02 -9.39 3.38c-20.02,7.2 -24.09,37.91 -17.48,66.44 1.94,8.37 4.8,16.44 8.45,23.53 3.25,6.31 7.03,11.69 11.2,15.53l0 0zm194.95 -147.32c0.02,-0.02 0.02,-0.02 -0.01,-0.02l0.01 0.02zm15.19 24.42c0.03,-0.02 0.04,-0.03 0,-0.01l0 0.01zm57.73 13.71c0.03,0.03 0.03,0.02 0.01,0l-0.01 0zm-19.18 6.45c0.03,0.04 0.04,0.05 0.01,0l-0.01 0z"/>
   <path class="fil0" d="M9509.62 6941.7c7.22,-2.46 15.89,-1.52 24.47,2.05 5.18,2.16 10.32,5.28 15.09,9.21l112.42 -38.37c-0.96,-5.23 -0.85,-10.15 0.29,-14.45 1.87,-7.15 6.52,-12.63 13.74,-15.1 8.37,-2.86 18.61,-1.19 28.39,3.83 9.79,5 19.14,13.35 25.7,23.84 3.05,4.86 5.24,9.85 6.6,14.76 0.37,1.32 0.68,2.64 0.92,3.92 1.17,0.97 2.32,2 3.46,3.06 4.16,3.94 7.9,8.41 10.94,13.27 6.57,10.5 9.13,21.16 7.95,29.91 -1.18,8.75 -6.09,15.59 -14.46,18.45 -8.19,2.8 -18.21,1.22 -27.87,-3.59 -5.62,-2.8 -11.11,-6.73 -16.04,-11.54l-109.25 37.29c1.76,5.89 2.24,11.52 1.5,16.5 -1.29,8.55 -6.16,15.21 -14.35,18.01 -8.37,2.86 -18.61,1.19 -28.4,-3.83 -9.79,-5 -19.13,-13.35 -25.69,-23.84 -3.05,-4.86 -5.24,-9.86 -6.61,-14.76 -0.37,-1.33 -0.67,-2.64 -0.91,-3.92 -1.18,-0.98 -2.33,-2 -3.46,-3.07 -4.17,-3.94 -7.9,-8.41 -10.94,-13.27 -6.57,-10.49 -9.13,-21.15 -7.95,-29.91 1.18,-8.75 6.09,-15.59 14.46,-18.45l0 0zm24.05 25.71c-2.91,-1.21 -5.88,-1.52 -8.38,-0.66 -2.86,0.97 -4.54,3.31 -4.94,6.29 -0.4,2.99 0.47,6.63 2.72,10.21 1.12,1.79 2.37,3.33 3.7,4.58 1.42,1.34 3.02,2.49 4.71,3.41l11.8 6.36 -1.08 10.75c-0.16,1.55 -0.01,3.2 0.46,4.86 0.43,1.56 1.2,3.26 2.32,5.05 2.25,3.59 5.43,6.44 8.77,8.15 3.34,1.7 6.84,2.27 9.7,1.3 2.82,-0.96 4.51,-3.24 4.94,-6.13 0.44,-2.93 -0.35,-6.49 -2.45,-10l-7.4 -12.31 9.69 -3.31 125.39 -42.8 9.68 -3.3 7.91 12.13c2.25,3.46 5.42,6.21 8.73,7.87 3.27,1.62 6.69,2.15 9.52,1.18 2.86,-0.97 4.54,-3.31 4.94,-6.3 0.4,-2.98 -0.48,-6.62 -2.72,-10.21 -1.12,-1.78 -2.38,-3.32 -3.7,-4.57 -1.42,-1.35 -3.02,-2.5 -4.72,-3.41l-11.8 -6.36 1.09 -10.76c0.16,-1.54 0,-3.19 -0.46,-4.86 -0.43,-1.55 -1.2,-3.26 -2.33,-5.05 -2.24,-3.58 -5.43,-6.43 -8.76,-8.14 -3.34,-1.71 -6.84,-2.28 -9.7,-1.3 -2.51,0.86 -4.11,2.72 -4.75,5.14 -0.65,2.48 -0.32,5.54 1.04,8.65l4.68 10.63 -8.11 2.77 -126.2 43.07 -8.11 2.77 -7.93 -9.51c-2.33,-2.8 -5.27,-4.95 -8.25,-6.19l0 0z"/>
   <path class="fil0" d="M9387.73 6916.47l352.59 -120.31c9.65,-3.29 20.42,-1.23 31.21,4.29 11.18,5.72 22.18,15.28 31.59,26.22l117.24 136.29c2.15,2.49 3.96,4.94 5.45,7.33 6.31,10.09 8.43,20.38 7.26,29.33 -1.06,8.18 -4.98,15.28 -10.98,19.85 -2.29,1.75 -4.82,3.13 -7.53,4.05l-405.21 138.26c-2.72,0.93 -5.77,1.46 -9.07,1.61 -8.59,0.41 -18.46,-1.98 -27.58,-6.68 -9.99,-5.14 -19.24,-13.01 -25.55,-23.1 -1.5,-2.39 -2.85,-4.99 -4.03,-7.81l-64.62 -154.25c-5.18,-12.39 -7.91,-24.76 -6.57,-34.76 1.3,-9.64 6.16,-17.03 15.8,-20.32l0 0zm368.26 -95.28l-352.6 120.3c-3.82,1.31 -5.75,4.29 -6.28,8.19 -0.75,5.58 0.98,13 4.22,20.73l64.61 154.25c0.28,0.65 0.66,1.36 1.15,2.15 1.92,3.05 5.09,5.64 8.69,7.49 4.47,2.3 9.34,3.46 13.63,3.26 1.45,-0.07 2.88,-0.33 4.27,-0.8l405.22 -138.27c1.38,-0.47 2.58,-1.1 3.59,-1.87 3,-2.29 4.95,-5.79 5.47,-9.78 0.42,-3.23 -0.18,-6.69 -2.1,-9.75 -0.48,-0.77 -0.97,-1.46 -1.47,-2.04l-117.24 -136.29c-5.87,-6.82 -12.4,-12.61 -18.64,-15.8 -4.37,-2.24 -8.69,-3.08 -12.52,-1.77l0 0z"/>
  </g>
  <g id="_105553210058528">
   <path class="fil0" d="M11180.29 5183.38l-16.3 -43.5c-4.61,-2.85 -9.45,-8.02 -14.29,-13.19 -4.1,-4.39 -7.78,-8.86 -7.99,-8.81 -0.4,0.08 -1.14,5.75 -1.89,11.42 -1.33,10.09 -2.67,20.2 -9.67,21.7 -7.51,1.61 -15.06,-7.07 -22.61,-15.75 -3.67,-4.23 -7.35,-8.46 -7.38,-8.45 -2.13,0.45 2.14,4.33 2.14,9.13 0,10.52 0,21.05 -5.83,22.3 -6.88,1.48 -14.8,-6.81 -22.72,-15.11 -4.22,-4.42 -8.34,-8.87 -8.39,-8.85 -0.05,0.01 -0.48,5.43 -1.01,10.87 -0.98,10.2 -1.98,20.41 -8.86,21.88 -5.83,1.25 -13.13,-7.7 -20.43,-16.66 -3.32,-4.08 -2.38,-9.08 -4.51,-8.62 -0.03,0 -0.22,5.06 -0.42,10.12 -0.41,10.4 -0.81,20.79 -8.32,22.39 -7,1.51 -15.14,-6.56 -23.28,-14.63 -4.57,-4.52 -9.13,-9.05 -9.53,-8.96 -0.21,0.04 -0.24,5.31 -0.69,10.67 -0.54,6.33 -1.07,12.65 -3.01,16.91l16.3 43.5 -13.78 2.96 -18.91 -50.46 -3.94 -10.53 6.89 -1.48c0.21,-0.04 0.24,-5.31 0.69,-10.67 0.87,-10.24 1.73,-20.49 8.56,-21.95 7,-1.5 15.14,6.56 23.28,14.63 4.57,4.52 9.13,9.05 9.53,8.97 0.02,-0.01 0.22,-5.07 0.42,-10.13 0.4,-10.39 0.81,-20.78 8.32,-22.39 5.83,-1.25 13.13,7.7 20.44,16.66 3.32,4.08 2.37,9.08 4.51,8.62 0.05,-0.01 0.47,-5.43 1,-10.87 0.99,-10.2 1.98,-20.41 8.86,-21.88 6.88,-1.48 14.79,6.81 22.71,15.11 4.22,4.42 8.35,8.86 8.4,8.85 2.13,-0.46 -2.14,-4.34 -2.14,-9.13 0,-10.53 0,-21.06 5.83,-22.31 7.52,-1.61 15.07,7.07 22.62,15.76 3.67,4.22 7.35,8.45 7.38,8.45 0.39,-0.09 1.14,-5.75 1.89,-11.42 1.33,-10.1 2.66,-20.2 9.66,-21.7 6.84,-1.47 14.67,6.91 22.51,15.28 4.1,4.38 7.79,8.85 8,8.81l6.89 -1.48 3.94 10.52 18.91 50.47 -13.78 2.95 0 0z"/>
   <polygon class="fil0" points="10986.09,5206.28 11182.5,5156.23 11191.11,5182.65 10994.69,5232.7 "/>
   <path class="fil0" d="M11095.17 5438.72c-9.98,-37.22 -14.94,-74.69 -14.4,-109.46 0.53,-33.75 6.26,-65.06 17.62,-91.26l2.71 -6.26 6.46 6.01c8.83,8.21 15.92,18.65 21.54,30.94 4.63,10.14 8.27,21.58 11.07,34.09 19.63,13.61 34.39,21.86 45.29,25.85 10.24,3.75 16.46,3.57 19.8,0.56l4.69 -4.22 5.37 8.03c4.72,7.05 8.15,13.51 10.49,19.41 5.73,14.46 5.06,25.3 0.48,33.4 -4.1,7.22 -11.38,11.88 -19.84,14.83 -10.11,3.52 -21.98,4.65 -31.73,4.82l18.18 48.18 3.01 7.96 -5.29 1.8c-12.63,4.29 -26.66,4.4 -41.78,1.3 -14.82,-3.05 -30.69,-9.23 -47.3,-17.63l-4.77 -2.41 -1.6 -5.94 0 0zm-0.21 -102.72c-0.49,30.96 3.64,64.12 11.99,97.18 13.67,6.58 26.73,11.44 38.96,13.96 11.23,2.3 21.75,2.6 31.4,0.4l-18.86 -49.96 -3.85 -10.22 7.7 0.26c9.86,0.32 24.51,-0.21 36.16,-4.27 6.74,-2.35 12.41,-5.83 15.3,-10.93 2.4,-4.22 2.74,-9.88 -0.26,-17.45 -0.83,-2.1 -1.9,-4.36 -3.24,-6.78 -5.68,1.89 -13.42,1.27 -23.74,-2.51 -12.87,-4.72 -30.3,-14.57 -53.54,-31.01l-4.27 -3.01 -1.08 -5.42c-2.54,-12.67 -5.9,-23.98 -10.31,-33.6 -2.57,-5.65 -5.51,-10.69 -8.83,-15.05 -8.67,22.93 -13.08,49.69 -13.53,78.41l0 0z"/>
   <path class="fil0" d="M11175.7 5183.47c-2.73,-4.48 -7.19,-6.53 -9.95,-4.58 -2.76,1.94 -2.79,7.16 -0.05,11.63 36.49,59.91 66.39,117.87 88.54,173.55 21.18,53.21 35.3,104.39 41.38,153.24l-163.29 32.99c-30.31,-43.96 -55.44,-92.92 -76.03,-146.24 -21.54,-55.8 -38.14,-116.45 -50.52,-181.23 -0.93,-4.84 -4.74,-9.28 -8.51,-9.91 -3.77,-0.62 -6.08,2.79 -5.15,7.63 12.66,66.25 29.7,128.43 51.87,185.85 22.2,57.52 49.52,110.21 82.71,157.36 2.18,3.41 5.53,5.52 8.28,4.96l171.62 -34.67c2.54,-0.42 4.09,-3.04 3.68,-6.76l-6.99 -2.04 6.98 2.03c-5.89,-52.83 -20.88,-108.22 -43.81,-165.83 -22.8,-57.28 -53.44,-116.72 -90.76,-177.98l0 0z"/>
  </g>
  <g id="_105553210060448">
   <path class="fil0" d="M10760.59 8211.72c12.49,-2.43 26.58,1.09 39.94,8.94 8.06,4.73 15.83,11.05 22.82,18.61l194.24 -37.81c-0.38,-8.85 0.91,-16.94 3.76,-23.78 4.71,-11.37 13.64,-19.37 26.12,-21.8 14.46,-2.82 30.98,2.26 45.99,12.75 15.02,10.49 28.55,26.38 37,45.19 3.93,8.71 6.41,17.45 7.55,25.86 0.31,2.27 0.51,4.51 0.62,6.68 1.72,1.87 3.38,3.83 5.02,5.84 5.98,7.45 11.12,15.67 15.04,24.39 8.46,18.82 10.26,36.99 6.33,51.17 -3.93,14.17 -13.59,24.34 -28.04,27.16 -14.16,2.76 -30.35,-2.12 -45.19,-12.25 -8.65,-5.9 -16.81,-13.63 -23.85,-22.68l-188.8 36.75c1.57,10.13 1.1,19.52 -1.26,27.58 -4.07,13.81 -13.62,23.7 -27.78,26.46 -14.46,2.81 -30.98,-2.27 -46,-12.76 -15.02,-10.48 -28.54,-26.38 -37,-45.2 -3.92,-8.71 -6.4,-17.45 -7.54,-25.84 -0.31,-2.28 -0.51,-4.51 -0.62,-6.69 -1.72,-1.88 -3.4,-3.83 -5.02,-5.85 -5.98,-7.45 -11.12,-15.67 -15.04,-24.38 -8.46,-18.81 -10.27,-36.99 -6.34,-51.17 3.94,-14.18 13.59,-24.35 28.05,-27.17l0 0zm33.87 47.88c-4.53,-2.65 -9.35,-3.84 -13.69,-2.99 -4.93,0.96 -8.23,4.44 -9.58,9.26 -1.33,4.84 -0.72,11.06 2.17,17.47 1.44,3.22 3.17,6.05 5.07,8.41 2.04,2.53 4.43,4.79 7.01,6.69l18.04 13.17 -4.23 17.5c-0.62,2.52 -0.74,5.28 -0.35,8.13 0.36,2.68 1.24,5.65 2.68,8.87 2.9,6.43 7.52,11.85 12.63,15.43 5.13,3.57 10.77,5.31 15.71,4.35 4.88,-0.95 8.18,-4.31 9.55,-8.99 1.4,-4.74 0.9,-10.8 -1.77,-17.06l-9.42 -22.01 16.73 -3.25 216.68 -42.19 16.73 -3.26 10.3 21.83c2.93,6.22 7.53,11.48 12.62,14.97 5.03,3.42 10.56,5.07 15.45,4.11 4.94,-0.96 8.24,-4.43 9.59,-9.27 1.33,-4.84 0.71,-11.04 -2.17,-17.47 -1.45,-3.21 -3.18,-6.03 -5.07,-8.4 -2.04,-2.54 -4.43,-4.8 -7.01,-6.69l-18.04 -13.17 4.23 -17.51c0.61,-2.52 0.74,-5.28 0.35,-8.13 -0.36,-2.66 -1.24,-5.65 -2.69,-8.87 -2.89,-6.41 -7.51,-11.84 -12.62,-15.43 -5.13,-3.57 -10.78,-5.31 -15.71,-4.34 -4.34,0.84 -7.41,3.56 -9.01,7.4 -1.64,3.96 -1.8,9.07 -0.25,14.52l5.31 18.61 -14.02 2.73 -218.06 42.45 -14.02 2.73 -10.93 -17.51c-3.21,-5.14 -7.57,-9.36 -12.21,-12.09l0 0z"/>
  </g>
  <path class="fil3" d="M5080.69 7581.08c-17.27,-65.39 -75.83,-123.95 -130.8,-130.8 -54.96,-6.86 -85.52,40.59 -68.25,105.97 17.27,65.38 75.83,123.94 130.8,130.8 54.96,6.85 85.52,-40.59 68.25,-105.97z"/>
  <g id="_105553210087712">
   <path class="fil0" d="M908.11 7913.15c5.78,-1.13 12.31,0.5 18.49,4.13 3.73,2.19 7.32,5.12 10.56,8.62l89.89 -17.5c-0.18,-4.1 0.42,-7.84 1.74,-11.01 2.18,-5.26 6.31,-8.97 12.09,-10.09 6.69,-1.3 14.34,1.05 21.28,5.9 6.96,4.86 13.22,12.21 17.13,20.92 1.82,4.03 2.96,8.07 3.49,11.96 0.15,1.05 0.24,2.09 0.29,3.1 0.8,0.86 1.57,1.77 2.32,2.7 2.77,3.45 5.15,7.25 6.97,11.28 3.91,8.71 4.74,17.12 2.92,23.68 -1.82,6.56 -6.28,11.27 -12.98,12.58 -6.55,1.27 -14.04,-0.98 -20.91,-5.67 -4,-2.73 -7.78,-6.31 -11.04,-10.5l-87.37 17.01c0.73,4.69 0.51,9.03 -0.59,12.76 -1.88,6.4 -6.3,10.97 -12.85,12.25 -6.69,1.3 -14.34,-1.05 -21.29,-5.91 -6.95,-4.85 -13.21,-12.2 -17.12,-20.91 -1.82,-4.03 -2.97,-8.08 -3.5,-11.97 -0.14,-1.05 -0.23,-2.08 -0.28,-3.09 -0.8,-0.87 -1.57,-1.77 -2.32,-2.71 -2.77,-3.44 -5.15,-7.25 -6.97,-11.28 -3.91,-8.71 -4.75,-17.12 -2.93,-23.68 1.82,-6.56 6.29,-11.27 12.98,-12.57l0 0zm15.68 22.15c-2.1,-1.22 -4.33,-1.77 -6.34,-1.38 -2.28,0.45 -3.81,2.05 -4.43,4.29 -0.62,2.24 -0.33,5.11 1,8.08 0.67,1.49 1.47,2.8 2.35,3.89 0.94,1.17 2.05,2.22 3.24,3.1l8.35 6.09 -1.96 8.1c-0.28,1.17 -0.34,2.45 -0.16,3.76 0.17,1.24 0.58,2.62 1.24,4.11 1.34,2.98 3.48,5.49 5.85,7.14 2.37,1.65 4.98,2.46 7.27,2.01 2.26,-0.43 3.79,-1.99 4.42,-4.16 0.65,-2.19 0.42,-4.99 -0.82,-7.89l-4.36 -10.19 7.74 -1.5 100.28 -19.53 7.75 -1.5 4.76 10.1c1.36,2.88 3.49,5.31 5.84,6.92 2.33,1.59 4.89,2.35 7.15,1.91 2.29,-0.45 3.82,-2.06 4.44,-4.29 0.62,-2.24 0.33,-5.11 -1.01,-8.09 -0.66,-1.48 -1.46,-2.79 -2.34,-3.88 -0.94,-1.18 -2.05,-2.23 -3.25,-3.1l-8.34 -6.1 1.96 -8.1c0.28,-1.17 0.34,-2.44 0.16,-3.76 -0.17,-1.23 -0.58,-2.62 -1.25,-4.11 -1.34,-2.97 -3.47,-5.48 -5.84,-7.14 -2.37,-1.65 -4.99,-2.46 -7.27,-2.01 -2.01,0.39 -3.43,1.65 -4.17,3.43 -0.76,1.83 -0.83,4.19 -0.11,6.72l2.45 8.61 -6.48 1.26 -100.92 19.65 -6.49 1.26 -5.06 -8.1c-1.49,-2.38 -3.5,-4.33 -5.65,-5.6l0 0z"/>
   <g>
    <path class="fil1" d="M764.14 7984.28l-24.97 -175.55 12.83 2.78 24.96 175.48 0.17 1.16 0.6 1.12c4.92,9.18 15.58,16.36 28.13,21.93 12.84,5.69 29.2,10.39 47.89,14.07l0.4 -6.68 -0.4 6.68c44.93,8.82 102.41,9.74 161.96,0.97 59.55,-8.77 110.08,-25.59 143.59,-45.96l-5.3 -5.84 5.3 5.84c13.93,-8.47 25.03,-17.23 32.25,-25.87 7.06,-8.46 11.25,-17.82 8.83,-27.36l-0.29 -1.17 -0.72 -1.08 -107.69 -163.3 9.38 -6.05 107.73 163.36 2.19 4.16c10.08,26.35 -4.74,53.81 -42.4,76.72 -33.65,20.46 -84.65,37.72 -145.01,46.61 -60.37,8.89 -118.58,7.7 -163.72,-1.16 -50.52,-9.92 -84.05,-30.26 -94.58,-56.54l-1.13 -4.32z"/>
    <path id="_1_6" class="fil2 str0" d="M764.14 7984.28l-24.97 -175.55 12.83 2.78 24.96 175.48 0.17 1.16 0.6 1.12c4.92,9.18 15.58,16.36 28.13,21.93 12.84,5.69 29.2,10.39 47.89,14.07l0.4 -6.68 -0.4 6.68c44.93,8.82 102.41,9.74 161.96,0.97 59.55,-8.77 110.08,-25.59 143.59,-45.96l-5.3 -5.84 5.3 5.84c13.93,-8.47 25.03,-17.23 32.25,-25.87 7.06,-8.46 11.25,-17.82 8.83,-27.36l-0.29 -1.17 -0.72 -1.08 -107.69 -163.3 9.38 -6.05 107.73 163.36 2.19 4.16c10.08,26.35 -4.74,53.81 -42.4,76.72 -33.65,20.46 -84.65,37.72 -145.01,46.61 -60.37,8.89 -118.58,7.7 -163.72,-1.16 -50.52,-9.92 -84.05,-30.26 -94.58,-56.54l-1.13 -4.32z"/>
   </g>
   <g>
    <path class="fil1" d="M893.88 7709.32c48.95,-7.31 96.6,-5.2 133.89,3.87 42.2,10.25 71.25,30.06 81.14,55.65 9.89,25.6 -1.53,51.45 -31.64,72.51 -26.61,18.61 -67.51,33.96 -116.46,41.28 -48.96,7.32 -96.61,5.19 -133.9,-3.87 -42.2,-10.25 -71.24,-30.05 -81.13,-55.65 -9.89,-25.61 1.52,-51.46 31.63,-72.51 26.61,-18.62 67.51,-33.97 116.47,-41.28zm139.94 24.72c-36.96,-8.98 -83.74,-10.76 -131.78,-3.58 -48.04,7.18 -88.42,21.97 -114.79,40.42 -11.22,7.85 -20.03,16.09 -25.4,24.32 -5.3,8.12 -7.8,17.14 -4.32,26.15 3.48,9 12.29,16.33 22.95,22.07 10.79,5.82 24.65,10.66 40.39,14.49 36.96,8.99 83.74,10.76 131.77,3.58 48.04,-7.18 88.42,-21.98 114.79,-40.42 11.23,-7.86 20.03,-16.09 25.41,-24.32 5.29,-8.13 7.8,-17.15 4.32,-26.15 -3.48,-9.01 -12.3,-16.34 -22.95,-22.07 -10.79,-5.82 -24.65,-10.67 -40.39,-14.49z"/>
    <path id="_1_0_7" class="fil2 str0" d="M893.88 7709.32c48.95,-7.31 96.6,-5.2 133.89,3.87 42.2,10.25 71.25,30.06 81.14,55.65 9.89,25.6 -1.53,51.45 -31.64,72.51 -26.61,18.61 -67.51,33.96 -116.46,41.28 -48.96,7.32 -96.61,5.19 -133.9,-3.87 -42.2,-10.25 -71.24,-30.05 -81.13,-55.65 -9.89,-25.61 1.52,-51.46 31.63,-72.51 26.61,-18.62 67.51,-33.97 116.47,-41.28zm139.94 24.72c-36.96,-8.98 -83.74,-10.76 -131.78,-3.58 -48.04,7.18 -88.42,21.97 -114.79,40.42 -11.22,7.85 -20.03,16.09 -25.4,24.32 -5.3,8.12 -7.8,17.14 -4.32,26.15 3.48,9 12.29,16.33 22.95,22.07 10.79,5.82 24.65,10.66 40.39,14.49 36.96,8.99 83.74,10.76 131.77,3.58 48.04,-7.18 88.42,-21.98 114.79,-40.42 11.23,-7.86 20.03,-16.09 25.41,-24.32 5.29,-8.13 7.8,-17.15 4.32,-26.15 -3.48,-9.01 -12.3,-16.34 -22.95,-22.07 -10.79,-5.82 -24.65,-10.67 -40.39,-14.49z"/>
   </g>
  </g>
 </g>
</svg>
