<svg width="72" height="32" viewBox="0 0 72 32" fill="none" xmlns="http://www.w3.org/2000/svg">
<g clip-path="url(#clip0_215_6088)">
<path d="M25.5056 16.0527C25.5056 16.5793 25.3759 17.106 25.0949 17.6537C24.8139 18.2015 24.4681 18.7492 24.079 19.2759C23.6899 19.8025 23.2576 20.3292 22.8253 20.7926C22.393 21.2772 22.004 21.7196 21.6797 22.0988C21.9607 22.5201 22.285 23.0678 22.6957 23.742C23.1063 24.4371 23.4954 25.1534 23.8629 25.9329C24.2303 26.7123 24.5329 27.4497 24.8139 28.187C25.0733 28.9243 25.203 29.5352 25.203 30.0198C25.203 30.42 25.0733 30.7782 24.8355 31.1152C24.5762 31.4523 24.2303 31.5998 23.798 31.5998C23.4738 31.5998 23.128 31.4734 22.8037 31.1995C22.4579 30.9256 22.1337 30.5675 21.7878 30.1251C21.442 29.6827 21.1177 29.1982 20.8151 28.6504C20.5125 28.1027 20.2315 27.5761 19.9505 27.0494C19.6912 26.5227 19.4534 26.0382 19.2588 25.5747C19.0643 25.1113 18.8914 24.7321 18.7833 24.4582C18.5239 24.711 18.2646 24.9006 17.9836 25.0691C17.7026 25.2377 17.4216 25.4062 17.1622 25.6169C17.1622 26.0171 17.1406 26.5649 17.119 27.2811C17.0973 27.9974 17.0109 28.6926 16.8596 29.4088C16.7083 30.104 16.4705 30.715 16.1463 31.2206C15.822 31.7472 15.3249 32 14.6981 32C14.2009 32 13.8118 31.7683 13.5308 31.347C13.2499 30.9046 13.0553 30.3779 12.9472 29.788C12.8175 29.1982 12.7527 28.5872 12.7311 27.9763C12.7095 27.3654 12.7095 26.9019 12.7095 26.5859C12.7095 25.1955 12.7527 23.8052 12.8175 22.4148C12.904 21.0244 12.9472 19.634 12.9689 18.2436C12.9689 17.9276 12.9689 17.5063 12.9905 16.9796C12.9905 16.4529 13.0337 15.9052 13.0985 15.2943C13.1634 14.6834 13.2499 14.0724 13.3579 13.4615C13.466 12.8506 13.6389 12.2818 13.8551 11.7762C14.0712 11.2706 14.3522 10.8703 14.6764 10.5543C15.0223 10.2383 15.433 10.0909 15.9085 10.0909C16.2543 10.0909 16.557 10.2173 16.7947 10.4701C17.0325 10.7229 17.227 11.0389 17.3783 11.4391C17.5296 11.8394 17.6377 12.2818 17.7026 12.7663C17.7674 13.2508 17.8106 13.7354 17.8539 14.2199C17.8755 14.7044 17.8971 15.1468 17.8971 15.5682C17.8971 15.9895 17.8971 16.3055 17.8971 16.5583C17.8971 16.7268 17.8971 16.9796 17.8755 17.3167C17.8755 17.6537 17.8539 17.9908 17.8539 18.3489C17.8539 18.7071 17.8323 19.0441 17.8323 19.3391C17.8323 19.634 17.8539 19.8657 17.8971 19.9921C18.0268 19.9921 18.2429 19.8657 18.5023 19.6129C18.7617 19.3601 19.0859 19.0441 19.4534 18.6439C19.8208 18.2436 20.1883 17.8223 20.6206 17.3799C21.0313 16.9375 21.4636 16.5161 21.8959 16.1159C22.3282 15.7156 22.7605 15.3996 23.1928 15.1468C23.6251 14.894 24.0142 14.7676 24.3816 14.7676C24.7707 14.7676 25.0733 14.894 25.2895 15.1679C25.3975 15.3996 25.5056 15.6946 25.5056 16.0527Z" fill="black"/>
<path d="M31.5363 21.1297C31.5363 21.4036 31.5363 21.6774 31.5363 21.9724C31.5363 22.2673 31.5363 22.5412 31.5146 22.815C31.493 23.131 31.493 23.5734 31.493 24.1001C31.493 24.6267 31.4714 25.2166 31.4282 25.8275C31.3849 26.4385 31.3201 27.0705 31.2336 27.7235C31.1472 28.3555 30.9959 28.9454 30.823 29.472C30.6284 29.9987 30.369 30.42 30.0448 30.7571C29.7206 31.0942 29.3315 31.2627 28.8344 31.2838C28.4669 31.3048 28.1643 31.1574 27.9049 30.8624C27.6455 30.5675 27.451 30.1672 27.2781 29.6827C27.1052 29.1982 26.9971 28.6715 26.9106 28.0816C26.8242 27.4918 26.7809 26.923 26.7377 26.3542C26.6945 25.8065 26.6729 25.2798 26.6729 24.8163C26.6729 24.3529 26.6729 23.9947 26.6729 23.763C26.6729 23.4681 26.6729 23.0257 26.6729 22.478C26.6729 21.9302 26.6945 21.3193 26.7377 20.6873C26.7809 20.0553 26.8458 19.4023 26.9538 18.7492C27.0619 18.0961 27.2132 17.4852 27.4078 16.9375C27.6023 16.3897 27.8833 15.9473 28.2075 15.6103C28.5318 15.2732 28.9424 15.1047 29.4612 15.1047C29.98 15.1047 30.369 15.3575 30.65 15.8631C30.9094 16.3687 31.1256 16.9585 31.2553 17.6327C31.3849 18.3068 31.4714 18.9809 31.493 19.6551C31.5146 20.3081 31.5363 20.8137 31.5363 21.1297ZM31.2985 11.5234C31.2985 11.7972 31.2336 12.029 31.0823 12.2396C30.931 12.4503 30.7581 12.6399 30.5203 12.7874C30.2826 12.9559 30.0448 13.0612 29.7638 13.1455C29.4828 13.2298 29.245 13.2719 29.0073 13.2719C28.6182 13.2719 28.2724 13.1876 27.9914 12.998C27.7104 12.8084 27.5591 12.5135 27.5591 12.1132C27.5591 11.8394 27.6239 11.5866 27.7752 11.3549C27.9265 11.1442 28.0994 10.9546 28.3156 10.8282C28.5318 10.6807 28.7695 10.5754 29.0505 10.5122C29.3315 10.4279 29.5909 10.4069 29.8287 10.4069C30.1961 10.4069 30.542 10.4911 30.8446 10.6597C31.1472 10.8282 31.2985 11.1021 31.2985 11.5234Z" fill="black"/>
<path d="M47.2938 21.9092C47.2938 22.4569 47.2505 23.0678 47.1641 23.763C47.0776 24.4582 46.9479 25.1534 46.7534 25.8697C46.5588 26.5859 46.3211 27.2811 46.0185 27.9552C45.7158 28.6294 45.3484 29.2403 44.9161 29.767C44.4838 30.2936 43.9866 30.736 43.403 31.052C42.841 31.368 42.171 31.5365 41.4144 31.5365C40.6147 31.5365 39.9014 31.347 39.2529 31.0099C38.6045 30.6518 38.0425 30.1672 37.5886 29.5352C37.5237 30.0408 37.3076 30.4832 36.9617 30.8835C36.5943 31.2627 36.1404 31.4523 35.5784 31.4523C35.2541 31.4523 34.9731 31.2838 34.757 30.9678C34.5408 30.6518 34.3463 30.2304 34.2166 29.7459C34.0869 29.2403 33.9788 28.6926 33.914 28.1027C33.8492 27.4918 33.8059 26.923 33.7843 26.3542C33.7627 25.7854 33.7627 25.2798 33.7627 24.8374C33.7627 24.395 33.7627 24.0579 33.7627 23.8683C33.7627 23.2364 33.7627 22.5833 33.7843 21.9513C33.7843 21.3193 33.8059 20.6662 33.8275 20.0132C33.8275 19.6972 33.8275 19.2126 33.8059 18.5807C33.8059 17.9487 33.8059 17.2324 33.8275 16.4529C33.8492 15.6735 33.8924 14.873 33.9572 14.0514C34.0221 13.2298 34.1518 12.4924 34.3247 11.7972C34.4976 11.102 34.7354 10.5543 35.0596 10.133C35.3622 9.69059 35.7729 9.47993 36.2484 9.45886C36.6375 9.45886 36.9617 9.58526 37.2427 9.85913C37.5021 10.133 37.7399 10.4701 37.9128 10.9125C38.0857 11.3548 38.237 11.8394 38.3451 12.366C38.4532 12.8927 38.518 13.4404 38.5829 13.9671C38.6261 14.4938 38.6693 15.0204 38.6693 15.4839C38.6693 15.9684 38.6909 16.3476 38.6909 16.6636C38.6909 16.7268 38.6909 16.8532 38.6693 17.0428C38.6693 17.2324 38.6477 17.4431 38.6477 17.6748C38.6477 17.9065 38.6477 18.0961 38.6477 18.2857C38.6477 18.4753 38.6477 18.5596 38.6477 18.5807C38.8206 18.2225 39.08 17.8644 39.4042 17.5273C39.7285 17.1903 40.0959 16.8953 40.5066 16.6215C40.9173 16.3476 41.328 16.1369 41.7819 15.9684C42.2358 15.7999 42.6465 15.7156 43.0572 15.7156C43.8786 15.7156 44.5486 15.9263 45.1106 16.3265C45.651 16.7268 46.1049 17.2535 46.4292 17.8644C46.7534 18.4753 46.9911 19.1495 47.1208 19.8868C47.2289 20.603 47.2938 21.2772 47.2938 21.9092ZM43.0356 22.7729C43.0356 22.5412 43.014 22.3094 42.9923 22.0356C42.9707 21.7617 42.9059 21.53 42.7978 21.2982C42.6897 21.0665 42.5384 20.8769 42.3655 20.7294C42.171 20.582 41.9548 20.4977 41.6522 20.4977C41.3496 20.4977 41.047 20.5609 40.7444 20.6873C40.4418 20.8137 40.1608 20.9822 39.8798 21.1929C39.5988 21.4036 39.361 21.6142 39.1232 21.846C38.8855 22.0777 38.6909 22.3094 38.518 22.5412L38.237 25.0481C38.5396 25.4905 38.9287 25.8275 39.361 26.0803C39.8149 26.3331 40.3121 26.4595 40.8741 26.4595C41.3064 26.4595 41.6522 26.3331 41.9332 26.0593C42.2142 25.7854 42.4304 25.4694 42.6033 25.0902C42.7762 24.711 42.8843 24.2897 42.9491 23.8683C42.9923 23.4681 43.0356 23.0889 43.0356 22.7729Z" fill="black"/>
<path d="M61.7542 23.1521C61.7542 24.1843 61.6462 25.2166 61.43 26.2278C61.2139 27.239 60.868 28.1448 60.3492 28.9454C59.8521 29.7459 59.182 30.3989 58.339 30.8835C57.496 31.368 56.4585 31.6208 55.2048 31.6208C53.9728 31.6208 52.9353 31.3891 52.1139 30.9045C51.2925 30.42 50.6224 29.788 50.1253 29.0086C49.6281 28.208 49.2823 27.3232 49.0878 26.3331C48.8932 25.343 48.7852 24.3107 48.7852 23.2785C48.7852 22.1409 48.9148 21.0244 49.1958 19.9078C49.2607 19.6129 49.3688 19.1916 49.5201 18.6438C49.693 18.1172 49.8875 17.5905 50.1469 17.0639C50.4063 16.5372 50.7089 16.0948 51.0547 15.7156C51.4006 15.3364 51.768 15.1468 52.1787 15.1468C52.5678 15.1468 52.8704 15.2521 53.1082 15.4628C53.3459 15.6735 53.5189 15.9263 53.6486 16.2423C53.7782 16.5583 53.8647 16.8743 53.9079 17.2324C53.9512 17.5905 53.9728 17.8854 53.9728 18.1804C53.9728 18.6228 53.9296 19.0441 53.8647 19.4444C53.7999 19.8657 53.735 20.266 53.6486 20.6873C53.5621 21.2561 53.4973 21.8249 53.4324 22.3726C53.3676 22.9414 53.3243 23.5102 53.3243 24.0579C53.3243 24.3318 53.3459 24.6478 53.3676 25.0059C53.3892 25.3641 53.4756 25.6801 53.5837 26.0171C53.6918 26.3331 53.8647 26.607 54.0809 26.8176C54.297 27.0283 54.5996 27.1336 54.9887 27.1336C55.4858 27.1336 55.8965 27.0072 56.1991 26.7334C56.5018 26.4595 56.7179 26.1435 56.8692 25.7433C57.0205 25.343 57.107 24.9217 57.1502 24.4793C57.1934 24.0369 57.2151 23.6155 57.2151 23.2363C57.2151 22.4147 57.1502 21.5932 57.0421 20.7926C56.9341 19.9921 56.826 19.1705 56.7179 18.3489C56.6963 18.2646 56.6963 18.1172 56.6963 17.9486C56.6963 17.6748 56.7395 17.3799 56.8476 17.106C56.9341 16.8321 57.0854 16.5793 57.2583 16.3476C57.4312 16.1159 57.6474 15.9473 57.8851 15.7999C58.1445 15.6524 58.4255 15.5892 58.7281 15.5892C59.1604 15.5892 59.5279 15.7367 59.8521 16.0316C60.1763 16.3265 60.4573 16.7057 60.6735 17.1692C60.8896 17.6327 61.0842 18.1382 61.2139 18.7281C61.3652 19.2969 61.4732 19.8657 61.5597 20.4134C61.6461 20.9612 61.711 21.4878 61.7326 21.9723C61.7326 22.499 61.7542 22.8782 61.7542 23.1521Z" fill="black"/>
<path d="M71.9996 15.6946C71.9996 16.2423 71.805 16.6425 71.4376 16.9164C71.0701 17.1903 70.6378 17.422 70.1839 17.6748C69.73 17.9065 69.2977 18.1804 68.9302 18.5175C68.5628 18.8335 68.3682 19.318 68.3682 19.95C68.3682 20.287 68.4547 20.582 68.606 20.8348C68.7789 21.0876 68.9735 21.2982 69.2112 21.4878C69.449 21.6774 69.7084 21.8881 70.011 22.0988C70.292 22.3094 70.573 22.5412 70.8108 22.815C71.0485 23.0889 71.2647 23.4049 71.416 23.7841C71.5889 24.1633 71.6537 24.6267 71.6537 25.1745C71.6537 25.975 71.4376 26.7334 71.0269 27.5129C70.6162 28.2713 70.0758 28.9454 69.4274 29.5563C68.7789 30.1462 68.044 30.6307 67.2443 30.9888C66.4229 31.347 65.6231 31.5155 64.845 31.5155C64.5208 31.5155 64.1965 31.4944 63.8507 31.4523C63.5265 31.4102 63.2239 31.3259 62.9645 31.1784C62.7051 31.052 62.4889 30.8624 62.316 30.6307C62.1431 30.399 62.0566 30.083 62.0566 29.7038C62.0566 29.1771 62.1647 28.7768 62.3809 28.4819C62.597 28.187 62.8564 27.9553 63.2022 27.7867C63.5265 27.6182 63.8723 27.4918 64.2614 27.3865C64.6288 27.3022 64.9963 27.1758 65.3205 27.0283C65.6447 26.8809 65.9257 26.7123 66.1419 26.4806C66.358 26.2489 66.4661 25.9329 66.4661 25.5115C66.4661 25.1113 66.3148 24.711 65.9906 24.2897C65.6664 23.8684 65.3205 23.4049 64.9314 22.9414C64.5424 22.4569 64.1965 21.9513 63.8723 21.4036C63.5481 20.8558 63.3968 20.266 63.3968 19.5919C63.3968 18.7913 63.5697 18.0329 63.8939 17.3377C64.2398 16.6425 64.6937 16.0527 65.2557 15.5471C65.8177 15.0415 66.4877 14.6412 67.201 14.3463C67.9359 14.0514 68.7141 13.9039 69.5138 13.9039C69.8165 13.9039 70.1191 13.925 70.4217 13.9882C70.7243 14.0514 70.9837 14.1356 71.2214 14.2831C71.4592 14.4306 71.6321 14.6202 71.7834 14.8519C71.9347 15.0415 71.9996 15.3575 71.9996 15.6946Z" fill="black"/>
<path d="M24.8573 7.6682C27.0299 7.6682 28.7912 5.95162 28.7912 3.8341C28.7912 1.71659 27.0299 0 24.8573 0C22.6846 0 20.9233 1.71659 20.9233 3.8341C20.9233 5.95162 22.6846 7.6682 24.8573 7.6682Z" fill="black"/>
<path d="M15.0438 8.4266C17.2165 8.4266 18.9778 6.71001 18.9778 4.59249C18.9778 2.47498 17.2165 0.758392 15.0438 0.758392C12.8712 0.758392 11.1099 2.47498 11.1099 4.59249C11.1099 6.71001 12.8712 8.4266 15.0438 8.4266Z" fill="black"/>
<path d="M7.17614 13.8407C9.3488 13.8407 11.1101 12.1241 11.1101 10.0066C11.1101 7.88906 9.3488 6.17247 7.17614 6.17247C5.00348 6.17247 3.24219 7.88906 3.24219 10.0066C3.24219 12.1241 5.00348 13.8407 7.17614 13.8407Z" fill="black"/>
<path d="M3.93395 22.499C6.10661 22.499 7.8679 20.7824 7.8679 18.6649C7.8679 16.5474 6.10661 14.8308 3.93395 14.8308C1.76129 14.8308 0 16.5474 0 18.6649C0 20.7824 1.76129 22.499 3.93395 22.499Z" fill="black"/>
</g>
<defs>
<clipPath id="clip0_215_6088">
<rect width="72" height="32" fill="white"/>
</clipPath>
</defs>
</svg>
