<?xml version="1.0" encoding="UTF-8"?>
<!DOCTYPE svg PUBLIC "-//W3C//DTD SVG 1.1//EN" "http://www.w3.org/Graphics/SVG/1.1/DTD/svg11.dtd">
<!-- Creator: CorelDRAW -->
<svg xmlns="http://www.w3.org/2000/svg" xml:space="preserve" width="15mm" height="15mm" version="1.1" style="shape-rendering:geometricPrecision; text-rendering:geometricPrecision; image-rendering:optimizeQuality; fill-rule:evenodd; clip-rule:evenodd"
viewBox="0 0 1500 1500"
 xmlns:xlink="http://www.w3.org/1999/xlink"
 xmlns:xodm="http://www.corel.com/coreldraw/odm/2003">
 <defs>
  <style type="text/css">
   <![CDATA[
    .fil4 {fill:black;fill-rule:nonzero}
    .fil2 {fill:#C95518;fill-rule:nonzero}
    .fil3 {fill:#D5DBE1;fill-rule:nonzero}
    .fil1 {fill:#EE7333;fill-rule:nonzero}
    .fil0 {fill:#F3F3F1;fill-rule:nonzero}
   ]]>
  </style>
 </defs>
 <g id="Capa_x0020_1">
  <metadata id="CorelCorpID_0Corel-Layer"/>
  <path class="fil0" d="M1061.82 368l0 704.68c0,59.63 -48.79,108.42 -108.42,108.42l-650.48 0c-59.62,0 -108.41,-48.79 -108.41,-108.42l0 -704.68c0,-59.63 48.79,-108.42 108.41,-108.42l650.48 0c59.63,0 108.42,48.79 108.42,108.42z"/>
  <path class="fil1" d="M560.34 509.38l-379.44 0 0 379.44 379.44 0c59.9,0 108.41,-48.52 108.41,-108.42l0 -162.61c0,-59.9 -48.51,-108.41 -108.41,-108.41z"/>
  <path class="fil1" d="M1365.16 1076.19c0,119.74 -97.09,216.82 -216.82,216.82 -119.75,0 -216.83,-97.08 -216.83,-216.82 0,-135.51 216.83,-379.44 216.83,-379.44 0,0 216.82,243.93 216.82,379.44z"/>
  <path class="fil2" d="M1224.87 1307.3c-17.35,4.88 -35.23,7.04 -54.21,7.04 -119.79,0 -216.83,-97.03 -216.83,-216.82 0,-135.51 216.83,-379.44 216.83,-379.44 0,0 22.77,26.01 54.21,65.59 -63.96,81.85 -162.62,222.25 -162.62,313.85 0,100.82 68.84,185.93 162.62,209.78z"/>
  <path class="fil3" d="M297.34 548.24l0 -171.07c0,-59.62 48.79,-108.41 108.42,-108.41l-108.42 0c-59.61,0 -108.4,48.79 -108.4,108.41l0 171.07 108.4 0z"/>
  <path class="fil3" d="M296.45 1045.23l0 -155.83 -108.4 0 0 155.83c0,59.63 48.79,108.42 108.4,108.42l108.42 0c-59.63,0 -108.42,-48.79 -108.42,-108.42z"/>
  <polygon class="fil2" points="186.83,525.82 295.23,525.82 295.23,905.23 186.83,905.23 "/>
  <path class="fil4" d="M1157.48 1341.51c-141.96,0 -257.48,-115.51 -257.48,-257.48 0,-146.74 203.88,-380.31 227.08,-406.44 15.45,-17.35 45.31,-17.35 60.75,0 23.26,26.13 227.08,259.7 227.08,406.44 0.05,141.97 -115.46,257.48 -257.43,257.48zm0 -574.15c-67.53,82.45 -176.17,232.7 -176.17,316.67 0,97.14 79.04,176.17 176.17,176.17 97.14,0 176.17,-79.03 176.17,-176.17 0,-83.97 -108.63,-234.22 -176.17,-316.67z"/>
  <path class="fil4" d="M742.44 1216.94l-433.65 0c-82.23,0 -149.07,-66.84 -149.07,-149.07l0 -704.69c0,-82.23 66.84,-149.07 149.07,-149.07l650.48 0c82.23,0 149.07,66.84 149.07,149.07l0 162.63 -81.31 0 0 -162.63c0,-37.35 -30.41,-67.76 -67.76,-67.76l-650.48 0c-37.35,0 -67.76,30.41 -67.76,67.76l0 704.69c0,37.35 30.41,67.76 67.76,67.76l433.65 0 0 81.31z"/>
  <path class="fil4" d="M588.4 935.43l-379.45 0 0 -81.31 379.45 0c37.35,0 67.76,-30.41 67.76,-67.76l0 -162.62c0,-37.35 -30.41,-67.76 -67.76,-67.76l-379.45 0 0 -81.31 379.45 0c82.23,0 149.07,66.84 149.07,149.07l0 162.62c0,82.23 -66.84,149.07 -149.07,149.07z"/>
 </g>
</svg>
