<?xml version="1.0" encoding="UTF-8"?>
<!DOCTYPE svg PUBLIC "-//W3C//DTD SVG 1.1//EN" "http://www.w3.org/Graphics/SVG/1.1/DTD/svg11.dtd">
<!-- Creator: CorelDRAW -->
<svg xmlns="http://www.w3.org/2000/svg" xml:space="preserve" width="15mm" height="15mm" version="1.1" style="shape-rendering:geometricPrecision; text-rendering:geometricPrecision; image-rendering:optimizeQuality; fill-rule:evenodd; clip-rule:evenodd"
viewBox="0 0 1500 1500"
 xmlns:xlink="http://www.w3.org/1999/xlink"
 xmlns:xodm="http://www.corel.com/coreldraw/odm/2003">
 <defs>
  <style type="text/css">
   <![CDATA[
    .fil4 {fill:black;fill-rule:nonzero}
    .fil3 {fill:#C95518;fill-rule:nonzero}
    .fil1 {fill:#D5DBE1;fill-rule:nonzero}
    .fil2 {fill:#EE7333;fill-rule:nonzero}
    .fil0 {fill:#F3F3F1;fill-rule:nonzero}
   ]]>
  </style>
 </defs>
 <g id="Capa_x0020_1">
  <metadata id="CorelCorpID_0Corel-Layer"/>
  <path class="fil0" d="M713.05 1194.8l-332.38 0c-56.25,0 -102.27,-46.02 -102.27,-102.27l0 -639.2c0,-56.25 46.02,-102.27 102.27,-102.27l153.41 0 332.38 0 153.41 0c56.25,0 102.27,46.02 102.27,102.27l0 178.98 0 562.49 -409.09 0z"/>
  <path class="fil1" d="M391.45 1088.86l0 -639.18c0,-56.25 46.02,-102.27 102.27,-102.27l-115.05 0c-56.25,0 -102.27,46.02 -102.27,102.27l0 639.18c0,56.24 46.02,102.26 102.27,102.26l115.05 0c-56.25,0 -102.27,-46.02 -102.27,-102.26z"/>
  <path class="fil2" d="M832.04 452.74l-230.12 0c-28.23,0 -51.13,-22.91 -51.13,-51.14l0 -76.7c0,-28.23 22.9,-51.14 51.13,-51.14l230.12 0c28.22,0 51.13,22.91 51.13,51.14l0 76.7c0,28.23 -22.91,51.14 -51.13,51.14z"/>
  <path class="fil3" d="M676.01 413.72l0 -76.69c0,-28.23 22.91,-51.14 51.13,-51.14l-115.04 0c-28.23,0 -51.14,22.91 -51.14,51.14l0 76.69c0,28.23 22.91,51.14 51.14,51.14l115.04 0c-28.22,0 -51.13,-22.91 -51.13,-51.14z"/>
  <path class="fil4" d="M1155.52 643.2l-76.7 0 0 -178.97c0,-35.23 -28.69,-63.92 -63.92,-63.92l-153.4 0 0 -76.7 153.4 0c77.57,0 140.62,63.05 140.62,140.62l0 178.97z"/>
  <path class="fil4" d="M837.71 487.76l-230.11 0c-49.34,0 -89.48,-40.14 -89.48,-89.48l0 -76.7c0,-49.35 40.14,-89.49 89.48,-89.49l230.11 0c49.35,0 89.49,40.14 89.49,89.49l0 76.7c0,49.34 -40.14,89.48 -89.49,89.48zm-230.11 -178.97c-7.05,0 -12.78,5.73 -12.78,12.79l0 76.7c0,7.06 5.73,12.79 12.78,12.79l230.11 0c7.06,0 12.78,-5.73 12.78,-12.79l0 -76.7c0,-7.06 -5.72,-12.79 -12.78,-12.79l-230.11 0z"/>
  <path class="fil2" d="M1078.36 1303.05c141.2,0 255.67,-114.47 255.67,-255.67 0,-141.21 -114.47,-255.69 -255.67,-255.69 -141.21,0 -255.68,114.48 -255.68,255.69 0,141.2 114.47,255.67 255.68,255.67z"/>
  <path class="fil3" d="M915.32 1034.77c0,-124.05 88.4,-227.45 205.66,-250.72 -16.21,-3.22 -32.94,-4.96 -50.06,-4.96 -141.18,0 -255.68,114.5 -255.68,255.68 0,141.18 114.5,255.67 255.68,255.67 17.12,0 33.85,-1.74 50.01,-4.96 -117.26,-23.27 -205.61,-126.66 -205.61,-250.71z"/>
  <path class="fil4" d="M1071.99 1347.15c-169.21,0 -306.82,-137.61 -306.82,-306.82 0,-169.21 137.61,-306.82 306.82,-306.82 169.21,0 306.82,137.61 306.82,306.82 0,169.21 -137.61,306.82 -306.82,306.82zm0 -536.93c-126.87,0 -230.11,103.24 -230.11,230.11 0,126.87 103.24,230.12 230.11,230.12 126.87,0 230.11,-103.25 230.11,-230.12 0,-126.87 -103.19,-230.11 -230.11,-230.11z"/>
  <path class="fil4" d="M1127.21 1167.05l-89.49 -89.49c-7.21,-7.21 -11.25,-16.93 -11.25,-27.15l0 -140.62 76.7 0 0 124.72 78.23 78.23 -54.19 54.31z"/>
  <path class="fil4" d="M715.84 1233.14l-332.37 0c-77.58,0 -140.63,-63.05 -140.63,-140.62l0 -639.19c0,-77.57 63.05,-140.63 140.63,-140.63l153.4 0 0 76.71 -153.4 0c-35.23,0 -63.92,28.69 -63.92,63.92l0 639.19c0,35.23 28.69,63.92 63.92,63.92l332.37 0 0 76.7z"/>
 </g>
</svg>
