<?xml version="1.0" encoding="UTF-8"?>
<!DOCTYPE svg PUBLIC "-//W3C//DTD SVG 1.1//EN" "http://www.w3.org/Graphics/SVG/1.1/DTD/svg11.dtd">
<!-- Creator: CorelDRAW -->
<svg xmlns="http://www.w3.org/2000/svg" xml:space="preserve" width="15mm" height="15mm" version="1.1" style="shape-rendering:geometricPrecision; text-rendering:geometricPrecision; image-rendering:optimizeQuality; fill-rule:evenodd; clip-rule:evenodd"
viewBox="0 0 1500 1500"
 xmlns:xlink="http://www.w3.org/1999/xlink"
 xmlns:xodm="http://www.corel.com/coreldraw/odm/2003">
 <defs>
  <style type="text/css">
   <![CDATA[
    .fil4 {fill:black;fill-rule:nonzero}
    .fil2 {fill:#C95518;fill-rule:nonzero}
    .fil3 {fill:#D5DBE1;fill-rule:nonzero}
    .fil0 {fill:#EE7333;fill-rule:nonzero}
    .fil1 {fill:#F3F3F1;fill-rule:nonzero}
   ]]>
  </style>
 </defs>
 <g id="Capa_x0020_1">
  <metadata id="CorelCorpID_0Corel-Layer"/>
  <path class="fil0" d="M853.71 753.69c25.58,-29.42 41.58,-67.28 41.58,-109.17 0,-92.66 -75.56,-167.79 -168.76,-167.79 -93.2,0 -168.76,75.13 -168.76,167.79 0,41.94 16,79.8 41.58,109.17l254.36 0z"/>
  <path class="fil1" d="M195.3 809.75l0 24.56c12.34,259.76 234.59,466.5 506.22,466.5 271.63,0 493.88,-206.74 506.23,-466.5l0 -24.56 -1012.45 0z"/>
  <path class="fil2" d="M757 538.58c-17.48,-6.09 -36,-10.07 -55.56,-10.07 -93.19,0 -168.76,75.13 -168.76,167.8 0,41.93 16,79.75 41.59,109.16l111.12 0c-25.58,-29.41 -41.58,-67.28 -41.58,-109.16 0,-73.22 47.46,-134.8 113.19,-157.73z"/>
  <path class="fil3" d="M302.63 834.65l0 -24.56 -111.13 0 0 24.56c12.35,259.76 234.6,466.5 506.23,466.5 18.81,0 37.29,-1.22 55.56,-3.14 -245.76,-25.93 -439.16,-221.57 -450.66,-463.36z"/>
  <path class="fil4" d="M704.03 1335.68c-291.25,0 -529.9,-220.29 -543.23,-501.62l-0.05 -26.28 74.08 0 0 24.56c11.46,240.18 217.56,429.68 469.2,429.68 251.62,0 457.72,-189.5 469.23,-431.4l-0.05 -22.84 74.08 0 0 24.56c-13.38,283.05 -252.03,503.34 -543.26,503.34z"/>
  <path class="fil4" d="M560.14 803.84c-33.24,-37.37 -50.78,-83.67 -50.78,-133.86 0,-112.64 92.41,-204.28 205.95,-204.28 24.94,0 49.24,4.28 72.3,12.72 2.27,0.64 4.45,1.43 6.47,2.46 3.85,1.91 7.61,3.98 11.46,6.82l-21.88 29.22 0.25 37.18 -0.5 0c-7.36,0 -14.52,-2.16 -20.59,-6.19 -15.11,-5.65 -31.07,-8.5 -47.56,-8.5 -72.69,0 -131.86,58.59 -131.86,130.62 0,31.97 11.16,61.38 32.2,85.1l-55.46 48.71z"/>
  <path class="fil4" d="M870.49 802.95l-55.51 -48.76c21.04,-23.72 32.2,-53.18 32.2,-85.1 0,-72.03 -59.17,-130.62 -131.86,-130.62 -16.2,0 -31.96,2.8 -46.87,8.25 -6.17,4.18 -13.78,6.49 -21.29,6.49l-0.24 -37.18 -21.83 -29.22c3.85,-2.84 7.6,-4.91 11.45,-6.82 2.28,-1.13 4.6,-2.02 7.07,-2.65 22.91,-8.3 47.01,-12.53 71.76,-12.53 113.53,0 205.94,91.64 205.94,204.28 -0.05,50.19 -17.58,96.49 -50.82,133.86z"/>
  <path class="fil0" d="M889.75 529.63c93.2,0 168.76,-75.12 168.76,-167.8 0,-92.67 -75.56,-167.8 -168.76,-167.8 -93.21,0 -168.76,75.13 -168.76,167.8 0,92.68 75.55,167.8 168.76,167.8z"/>
  <path class="fil0" d="M491.61 748.69c25.58,-29.42 41.58,-67.28 41.58,-109.17 0,-92.66 -75.56,-167.79 -168.76,-167.79 -93.2,0 -168.76,75.13 -168.76,167.79 0,41.94 16,79.8 41.58,109.17l254.36 0z"/>
  <path class="fil2" d="M394.9 533.58c-17.48,-6.09 -36,-10.07 -55.56,-10.07 -93.19,0 -168.76,75.13 -168.76,167.8 0,41.93 16,79.75 41.59,109.16l111.12 0c-25.58,-29.41 -41.58,-67.28 -41.58,-109.16 0,-73.22 47.46,-134.8 113.19,-157.73z"/>
  <path class="fil4" d="M198.04 798.84c-33.24,-37.37 -50.78,-83.67 -50.78,-133.86 0,-112.64 92.41,-204.28 205.95,-204.28 24.94,0 49.24,4.28 72.3,12.72 2.27,0.64 4.45,1.43 6.47,2.46 3.85,1.91 7.61,3.98 11.46,6.82l-21.88 29.22 0.25 37.18 -0.5 0c-7.36,0 -14.52,-2.16 -20.59,-6.19 -15.11,-5.65 -31.07,-8.5 -47.56,-8.5 -72.69,0 -131.86,58.59 -131.86,130.62 0,31.97 11.16,61.38 32.2,85.1l-55.46 48.71z"/>
  <path class="fil4" d="M508.39 797.95l-55.51 -48.76c21.04,-23.72 32.2,-53.18 32.2,-85.1 0,-72.03 -59.17,-130.62 -131.86,-130.62 -16.2,0 -31.96,2.8 -46.87,8.25 -6.17,4.18 -13.78,6.49 -21.29,6.49l-0.24 -37.18 -21.83 -29.22c3.85,-2.84 7.6,-4.91 11.45,-6.82 2.28,-1.13 4.6,-2.02 7.07,-2.65 22.91,-8.3 47.01,-12.53 71.76,-12.53 113.53,0 205.94,91.64 205.94,204.28 -0.05,50.19 -17.58,96.49 -50.82,133.86z"/>
  <path class="fil0" d="M1196.56 753.14c25.58,-29.42 41.58,-67.28 41.58,-109.17 0,-92.66 -75.56,-167.79 -168.76,-167.79 -93.2,0 -168.76,75.13 -168.76,167.79 0,41.94 16,79.8 41.58,109.17l254.36 0z"/>
  <path class="fil2" d="M1099.85 538.03c-17.48,-6.09 -36,-10.07 -55.56,-10.07 -93.19,0 -168.76,75.13 -168.76,167.8 0,41.93 16,79.75 41.59,109.16l111.12 0c-25.58,-29.41 -41.58,-67.28 -41.58,-109.16 0,-73.22 47.46,-134.8 113.19,-157.73z"/>
  <path class="fil4" d="M902.99 803.29c-33.24,-37.37 -50.78,-83.67 -50.78,-133.86 0,-112.64 92.41,-204.28 205.95,-204.28 24.94,0 49.24,4.28 72.3,12.72 2.27,0.64 4.45,1.43 6.47,2.46 3.85,1.91 7.61,3.98 11.46,6.82l-21.88 29.22 0.25 37.18 -0.5 0c-7.36,0 -14.52,-2.16 -20.59,-6.19 -15.11,-5.65 -31.07,-8.5 -47.56,-8.5 -72.69,0 -131.86,58.59 -131.86,130.62 0,31.97 11.16,61.38 32.2,85.1l-55.46 48.71z"/>
  <path class="fil4" d="M1213.34 802.4l-55.51 -48.76c21.04,-23.72 32.2,-53.18 32.2,-85.1 0,-72.03 -59.17,-130.62 -131.86,-130.62 -16.2,0 -31.96,2.8 -46.87,8.25 -6.17,4.18 -13.78,6.49 -21.29,6.49l-0.24 -37.18 -21.83 -29.22c3.85,-2.84 7.6,-4.91 11.45,-6.82 2.28,-1.13 4.6,-2.02 7.07,-2.65 22.91,-8.3 47.01,-12.53 71.76,-12.53 113.53,0 205.94,91.64 205.94,204.28 -0.05,50.19 -17.58,96.49 -50.82,133.86z"/>
  <polygon class="fil4" points="139.54,748.56 1267.77,748.56 1267.77,822.22 139.54,822.22 "/>
  <path class="fil2" d="M832.43 360.68c0,-73.21 47.4,-134.79 113.19,-157.72 -17.49,-6.09 -36.01,-10.07 -55.56,-10.07 -93.19,0 -168.76,75.14 -168.76,167.79 0,92.67 75.57,167.8 168.76,167.8 19.55,0 38.07,-3.98 55.56,-10.07 -65.79,-22.93 -113.19,-84.56 -113.19,-157.73z"/>
  <path class="fil4" d="M892.97 564.15c-113.49,0 -205.79,-91.78 -205.79,-204.63 0,-112.83 92.3,-204.61 205.79,-204.61 113.45,0 205.8,91.78 205.8,204.61 0,112.85 -92.3,204.63 -205.8,204.63zm0 -335.53c-72.64,0 -131.71,58.73 -131.71,130.95 0,72.24 59.07,130.97 131.71,130.97 72.6,0 131.72,-58.73 131.72,-130.97 0,-72.22 -59.07,-130.95 -131.72,-130.95z"/>
  <path class="fil0" d="M527.66 529.55c93.2,0 168.76,-75.12 168.76,-167.8 0,-92.67 -75.56,-167.8 -168.76,-167.8 -93.21,0 -168.76,75.13 -168.76,167.8 0,92.68 75.55,167.8 168.76,167.8z"/>
  <path class="fil2" d="M470.34 360.6c0,-73.21 47.4,-134.79 113.19,-157.72 -17.49,-6.09 -36.01,-10.07 -55.56,-10.07 -93.19,0 -168.76,75.14 -168.76,167.79 0,92.67 75.57,167.8 168.76,167.8 19.55,0 38.07,-3.98 55.56,-10.07 -65.79,-22.93 -113.19,-84.56 -113.19,-157.73z"/>
  <path class="fil4" d="M530.88 564.07c-113.49,0 -205.79,-91.78 -205.79,-204.63 0,-112.83 92.3,-204.61 205.79,-204.61 113.45,0 205.8,91.78 205.8,204.61 0,112.85 -92.3,204.63 -205.8,204.63zm0 -335.53c-72.64,0 -131.71,58.73 -131.71,130.95 0,72.24 59.07,130.97 131.71,130.97 72.6,0 131.72,-58.73 131.72,-130.97 0,-72.22 -59.07,-130.95 -131.72,-130.95z"/>
 </g>
</svg>
