<?xml version="1.0" encoding="UTF-8"?>
<!DOCTYPE svg PUBLIC "-//W3C//DTD SVG 1.1//EN" "http://www.w3.org/Graphics/SVG/1.1/DTD/svg11.dtd">
<!-- Creator: CorelDRAW -->
<svg xmlns="http://www.w3.org/2000/svg" xml:space="preserve" width="15mm" height="15mm" version="1.1" style="shape-rendering:geometricPrecision; text-rendering:geometricPrecision; image-rendering:optimizeQuality; fill-rule:evenodd; clip-rule:evenodd"
viewBox="0 0 1500 1500"
 xmlns:xlink="http://www.w3.org/1999/xlink"
 xmlns:xodm="http://www.corel.com/coreldraw/odm/2003">
 <defs>
  <style type="text/css">
   <![CDATA[
    .fil4 {fill:black;fill-rule:nonzero}
    .fil3 {fill:#C95518;fill-rule:nonzero}
    .fil2 {fill:#D5DBE1;fill-rule:nonzero}
    .fil0 {fill:#EE7333;fill-rule:nonzero}
    .fil1 {fill:#F3F3F1;fill-rule:nonzero}
   ]]>
  </style>
 </defs>
 <g id="Capa_x0020_1">
  <metadata id="CorelCorpID_0Corel-Layer"/>
  <path class="fil0" d="M256.51 424.61l1041.8 0 0 -69.45c0,-51.16 -41.44,-92.61 -92.6,-92.61l-856.59 0c-51.17,0 -92.61,41.45 -92.61,92.61l0 69.45z"/>
  <path class="fil1" d="M1203.28 1208.19l-856.59 0c-51.17,0 -92.61,-41.44 -92.61,-92.61l0 -694.53 1041.8 0 0 694.53c0,51.17 -41.44,92.61 -92.6,92.61z"/>
  <path class="fil1" d="M230.8 1203.43c0,38.33 31.12,69.45 69.46,69.45l300.95 0c38.34,0 69.45,-31.12 69.45,-69.45l0 -625.06c0,-38.34 -31.11,-69.46 -69.45,-69.46l-300.95 0c-38.34,0 -69.46,31.12 -69.46,69.46l0 625.06z"/>
  <path class="fil2" d="M327.16 1204.73l0 -625.07c0,-38.34 31.12,-69.46 69.46,-69.46l-104.18 0c-38.34,0 -69.46,31.12 -69.46,69.46l0 625.07c0,38.33 31.12,69.45 69.46,69.45l104.18 0c-38.34,0 -69.46,-31.12 -69.46,-69.45z"/>
  <path class="fil0" d="M594.08 534.67c-25.56,0 -46.3,20.75 -46.3,46.3 0,25.55 -20.74,46.3 -46.29,46.3l-115.75 0c-25.56,0 -46.3,-20.75 -46.3,-46.3 0,-25.55 -20.73,-46.3 -46.29,-46.3l300.93 0z"/>
  <path class="fil3" d="M447.58 579.2c0,-25.55 -20.74,-46.3 -46.29,-46.3l-104.17 0c25.55,0 46.29,20.75 46.29,46.3 0,25.55 20.74,46.3 46.3,46.3l104.17 0c-25.56,0 -46.3,-20.75 -46.3,-46.3z"/>
  <path class="fil4" d="M506.76 655.44l-115.76 0c-44.67,0 -81.02,-36.34 -81.02,-81.02 0,-6.39 -5.18,-11.57 -11.57,-11.57l0 -69.45c44.68,0 81.03,36.34 81.03,81.02 0,6.38 5.17,11.57 11.56,11.57l115.76 0c6.39,0 11.57,-5.19 11.57,-11.57 0,-44.68 36.34,-81.02 81.02,-81.02l0 69.45c-6.39,0 -11.57,5.18 -11.57,11.57 0,44.68 -36.35,81.02 -81.02,81.02z"/>
  <path class="fil4" d="M1039.99 916.8l-150.47 0c-19.17,0 -34.73,-15.56 -34.73,-34.73l0 -150.47 69.45 0 0 115.75 115.75 0 0 69.45z"/>
  <polygon class="fil2" points="359.15,395.7 359.15,499.88 254.97,546.18 254.97,395.7 "/>
  <polygon class="fil4" points="724.26,388.97 1291.38,388.97 1291.38,458.41 724.26,458.41 "/>
  <polygon class="fil4" points="875.43,847.07 1049.06,673.44 1098.17,722.55 924.54,896.18 "/>
  <path class="fil3" d="M454.58 257.84l-104.18 0c-51.16,0 -92.6,41.45 -92.6,92.61l0 69.45 104.18 0 0 -69.45c0,-51.16 41.44,-92.61 92.6,-92.61z"/>
  <path class="fil4" d="M1207.02 1238.92l-381.99 0 0 -69.45 381.99 0c31.9,0 57.88,-25.98 57.88,-57.88l0 -763.98c0,-31.9 -25.98,-57.87 -57.88,-57.87l-856.58 0c-31.9,0 -57.88,25.97 -57.88,57.87l0 57.88 -69.45 0 0 -57.88c0,-70.24 57.09,-127.33 127.33,-127.33l856.58 0c70.24,0 127.33,57.09 127.33,127.33l0 763.98c0,70.24 -57.09,127.33 -127.33,127.33z"/>
  <path class="fil4" d="M597 1326.3l-300.96 0c-57.42,0 -104.18,-46.72 -104.18,-104.18l0 -625.08c0,-57.46 46.76,-104.18 104.18,-104.18l300.96 0c57.42,0 104.18,46.72 104.18,104.18l0 625.08c0,57.46 -46.76,104.18 -104.18,104.18zm-300.96 -763.99c-19.12,0 -34.73,15.56 -34.73,34.73l0 625.08c0,19.16 15.61,34.72 34.73,34.72l300.96 0c19.12,0 34.73,-15.56 34.73,-34.72l0 -625.08c0,-19.17 -15.61,-34.73 -34.73,-34.73l-300.96 0z"/>
 </g>
</svg>
