<?xml version="1.0" encoding="UTF-8"?>
<!DOCTYPE svg PUBLIC "-//W3C//DTD SVG 1.1//EN" "http://www.w3.org/Graphics/SVG/1.1/DTD/svg11.dtd">
<!-- Creator: CorelDRAW -->
<svg xmlns="http://www.w3.org/2000/svg" xml:space="preserve" width="15mm" height="15mm" version="1.1" style="shape-rendering:geometricPrecision; text-rendering:geometricPrecision; image-rendering:optimizeQuality; fill-rule:evenodd; clip-rule:evenodd"
viewBox="0 0 1500 1500"
 xmlns:xlink="http://www.w3.org/1999/xlink"
 xmlns:xodm="http://www.corel.com/coreldraw/odm/2003">
 <defs>
  <style type="text/css">
   <![CDATA[
    .fil0 {fill:black;fill-rule:nonzero}
    .fil2 {fill:#D5DBE1;fill-rule:nonzero}
    .fil3 {fill:#EE7333;fill-rule:nonzero}
    .fil1 {fill:#F3F3F1;fill-rule:nonzero}
   ]]>
  </style>
 </defs>
 <g id="Capa_x0020_1">
  <metadata id="CorelCorpID_0Corel-Layer"/>
  <polygon class="fil0" points="483.37,1094.57 552.83,1094.57 552.83,1279.77 483.37,1279.77 "/>
  <path class="fil1" d="M283.07 463.61l0 435.42c0,98.34 80.62,178.08 180.07,178.08l450.14 0c99.46,0 180.07,-45.01 180.07,-143.36l0 -464.35 -810.28 -5.79z"/>
  <path class="fil2" d="M558.59 1077.34l-92.61 0c-99.55,0 -180.11,-80.1 -180.11,-178.26l0 -435.7 92.6 0.47 0 435.23c0,98.16 80.57,178.26 180.12,178.26z"/>
  <path class="fil0" d="M908.47 1110.05l-450.18 0c-118.39,0 -214.75,-95.47 -214.75,-212.8l0 -435.42 69.45 0 0 435.42c0,79.04 65.2,143.35 145.35,143.35l450.18 0c43.71,0 145.34,-10.6 145.34,-108.62l69.41 0c0,108.16 -84.32,178.07 -214.8,178.07z"/>
  <path class="fil3" d="M988.06 570l-608.98 0c-48.93,0 -93.29,-35.66 -97.46,-84.41 -2.45,-28.65 8.01,-55 26.95,-73.47 16.72,-17.14 39.87,-27.32 65.32,-27.32l614.17 0c51.4,0 92.97,41.9 92.6,93.29 -0.37,50.88 -41.72,91.91 -92.6,91.91z"/>
  <path class="fil0" d="M632.56 612.89l-254.66 0c-70.2,0 -127.33,-57.09 -127.33,-127.33 0,-34.4 13.42,-66.39 37.78,-90.15 23.15,-23.75 55.14,-37.18 89.55,-37.18l256.05 0 0 69.45 -256.05 0c-15.47,0 -29.87,5.98 -40.43,16.81 -11.48,11.21 -17.45,25.61 -17.45,41.07 0,31.9 25.97,57.88 57.88,57.88l254.66 0 0 69.45z"/>
  <path class="fil3" d="M1012.31 753.45c147.04,0 266.24,-119.2 266.24,-266.24 0,-147.04 -119.2,-266.24 -266.24,-266.24 -147.04,0 -266.24,119.2 -266.24,266.24 0,147.04 119.2,266.24 266.24,266.24z"/>
  <path class="fil0" d="M1016.88 778.04c-165.95,0 -300.96,-135.01 -300.96,-300.96 0,-165.95 135.01,-300.96 300.96,-300.96 165.95,0 300.96,135.01 300.96,300.96 0,165.95 -135.01,300.96 -300.96,300.96zm0 -532.47c-127.65,0 -231.51,103.86 -231.51,231.51 0,127.66 103.86,231.51 231.51,231.51 127.65,0 231.51,-103.85 231.51,-231.51 0,-127.65 -103.86,-231.51 -231.51,-231.51z"/>
  <path class="fil0" d="M1084.47 602.82l-92.6 -69.46c-8.71,-6.57 -13.89,-16.85 -13.89,-27.78l0 -150.48 69.45 0 0 133.12 78.71 59.03 -41.67 55.57z"/>
  <polygon class="fil0" points="837.42,1094.57 906.88,1094.57 906.88,1279.77 837.42,1279.77 "/>
 </g>
</svg>
