<?xml version="1.0" encoding="UTF-8"?>
<!DOCTYPE svg PUBLIC "-//W3C//DTD SVG 1.1//EN" "http://www.w3.org/Graphics/SVG/1.1/DTD/svg11.dtd">
<!-- Creator: CorelDRAW -->
<svg xmlns="http://www.w3.org/2000/svg" xml:space="preserve" width="15mm" height="15mm" version="1.1" style="shape-rendering:geometricPrecision; text-rendering:geometricPrecision; image-rendering:optimizeQuality; fill-rule:evenodd; clip-rule:evenodd"
viewBox="0 0 1500 1500"
 xmlns:xlink="http://www.w3.org/1999/xlink"
 xmlns:xodm="http://www.corel.com/coreldraw/odm/2003">
 <defs>
  <style type="text/css">
   <![CDATA[
    .fil4 {fill:black;fill-rule:nonzero}
    .fil3 {fill:#C95518;fill-rule:nonzero}
    .fil2 {fill:#D5DBE1;fill-rule:nonzero}
    .fil1 {fill:#EE7333;fill-rule:nonzero}
    .fil0 {fill:#F3F3F1;fill-rule:nonzero}
   ]]>
  </style>
 </defs>
 <g id="Capa_x0020_1">
  <metadata id="CorelCorpID_0Corel-Layer"/>
  <polygon class="fil0" points="408.23,558.19 527.29,518.51 725.73,518.51 1003.54,518.51 1109.37,558.19 1109.37,1007.99 580.21,1007.99 474.37,1007.99 315.62,994.76 302.39,849.24 302.39,677.26 395,664.03 "/>
  <path class="fil1" d="M1072.19 1199.42c100.2,0 181.43,-81.23 181.43,-181.44 0,-100.2 -81.23,-181.42 -181.43,-181.42 -100.2,0 -181.43,81.22 -181.43,181.42 0,100.21 81.23,181.44 181.43,181.44z"/>
  <path class="fil2" d="M453.71 1001.49l-90.72 0c-49.88,0 -90.7,-40.82 -90.7,-90.71l0 -226.77c0,-24.95 20.41,-45.36 45.36,-45.36l90.7 0c-24.94,0 -45.36,20.41 -45.36,45.36l0 226.77c0,49.89 40.83,90.71 90.72,90.71z"/>
  <path class="fil2" d="M564.56 484.39c-49.89,0 -90.72,40.82 -90.72,90.7l0 45.36 -90.7 0 0 -45.36c0,-49.88 40.82,-90.7 90.7,-90.7l90.72 0z"/>
  <path class="fil3" d="M1114.55 1178.08c-14.51,4.08 -29.48,5.9 -45.35,5.9 -100.24,0 -181.43,-81.19 -181.43,-181.44 0,-100.24 81.19,-181.42 181.43,-181.42 15.87,0 30.84,1.81 45.35,5.89 -78.46,19.96 -136.07,91.17 -136.07,175.53 0,84.37 57.61,155.58 136.07,175.54z"/>
  <path class="fil4" d="M624.79 1037.7l-272.13 0c-68.81,0 -124.73,-55.92 -124.73,-124.73l0 -226.78c0,-43.77 35.6,-79.37 79.37,-79.37l634.98 0 0 68.03 -634.98 0c-6.17,0 -11.34,5.17 -11.34,11.34l0 226.78c0,31.25 25.45,56.7 56.7,56.7l272.13 0 0 68.03z"/>
  <path class="fil4" d="M1074.64 1221.44c-118.79,0 -215.45,-96.66 -215.45,-215.45 0,-118.79 96.66,-215.45 215.45,-215.45 118.79,0 215.45,96.66 215.45,215.45 0,118.79 -96.66,215.45 -215.45,215.45zm0 -362.86c-81.28,0 -147.41,66.13 -147.41,147.41 0,81.28 66.13,147.41 147.41,147.41 81.28,0 147.41,-66.13 147.41,-147.41 0,-81.28 -66.13,-147.41 -147.41,-147.41z"/>
  <path class="fil1" d="M1019.51 222.94c-11.39,-23.82 -36.2,-38.51 -62.55,-38.51 -29.98,0 -56.61,19.18 -66.09,47.62l-8.8 26.45c-12.33,37.01 -47.03,62 -86.08,62l-154.03 0c-58.55,0 -110.58,37.46 -129.08,93.03l-14.34 43.04 498.92 0c51.94,-77.88 59.29,-155.76 22.05,-233.63z"/>
  <path class="fil3" d="M692.68 343.41c-58.5,0 -110.66,37.65 -128.81,92.97l-14.51 43.09 -90.71 0 14.52 -43.09c18.14,-55.32 70.29,-92.97 128.8,-92.97l90.71 0z"/>
  <path class="fil4" d="M995.11 490.13l-56.61 -37.74c45.18,-67.8 51.62,-133.24 19.64,-200.1 -5.58,-11.61 -18.05,-19.14 -31.89,-19.14 -15.32,0 -28.93,9.8 -33.78,24.35l-8.8 26.4c-17.01,51.02 -64.54,85.31 -118.34,85.31l-154.03 0c-43.99,0 -82.9,28.03 -96.78,69.8l-14.33 43.05 -64.55 -21.55 14.33 -43.04c23.18,-69.58 88,-116.29 161.33,-116.29l154.03 0c24.45,0 46.09,-15.6 53.8,-38.78l8.8 -26.39c14.15,-42.41 53.66,-70.9 98.32,-70.9 39.83,0 76.43,22.68 93.26,57.83 42.59,89.08 34.38,178.97 -24.4,267.19z"/>
  <path class="fil4" d="M416.33 620.55l-68.03 0 0 -45.36c0,-68.79 55.92,-124.72 124.72,-124.72l544.26 0c68.81,0 124.72,55.93 124.72,124.72l-68.03 0c0,-31.25 -25.44,-56.68 -56.69,-56.68l-544.26 0c-31.25,0 -56.69,25.43 -56.69,56.68l0 45.36z"/>
  <polygon class="fil4" points="1044.44,686.31 1112.46,686.31 1112.46,845.04 1044.44,845.04 "/>
  <polygon class="fil4" points="746.35,973.98 905.08,973.98 905.08,1042 746.35,1042 "/>
  <polygon class="fil4" points="822.64,802.74 870.74,754.63 983,866.88 934.89,914.99 "/>
  <polygon class="fil4" points="826.92,1201.81 939.18,1089.56 987.28,1137.67 875.03,1249.92 "/>
  <polygon class="fil4" points="1044.44,1154.25 1112.46,1154.25 1112.46,1312.98 1044.44,1312.98 "/>
  <polygon class="fil4" points="1224.38,973.98 1383.11,973.98 1383.11,1042 1224.38,1042 "/>
  <polygon class="fil4" points="1162.63,1140.14 1210.73,1092.03 1322.99,1204.28 1274.88,1252.39 "/>
  <polygon class="fil4" points="1169.11,881.33 1281.37,769.08 1329.47,817.19 1217.22,929.44 "/>
 </g>
</svg>
